<?xml version="1.0" encoding="UTF-8"?>
<svg version="1.1" xmlns="http://www.w3.org/2000/svg" width="90" height="100">
<path d="M0 0 C0.74217773 0.00161133 1.48435547 0.00322266 2.24902344 0.00488281 C10.59306605 0.18950154 18.76379797 2.20172916 24.75 8.375 C25.224375 9.220625 25.69875 10.06625 26.1875 10.9375 C28.19826366 14.07429131 30.41430935 14.8521847 33.75 16.375 C35.73037413 20.33574826 35.30471866 25.06813939 34.75 29.375 C31.99975374 33.1467663 28.76686619 35.09515702 24.75 37.375 C24.09 38.035 23.43 38.695 22.75 39.375 C22.95393718 42.84193199 24.23415018 45.33276231 25.875 48.3125 C27.37961078 51.21229532 27.75134708 52.30360471 27.6875 55.6875 C26.72737963 58.43984506 26.08211027 59.67076557 23.75 61.375 C22.76 61.705 21.77 62.035 20.75 62.375 C18.53425356 67.21346672 18.33763887 72.02262783 18.125 77.25 C18.08632813 78.03375 18.04765625 78.8175 18.0078125 79.625 C17.91433378 81.54131367 17.83111505 83.45812319 17.75 85.375 C19.4 85.705 21.05 86.035 22.75 86.375 C22.75 87.365 22.75 88.355 22.75 89.375 C7.99235519 92.53516095 -8.61770373 94.25243209 -23.25 89.375 C-23.25 88.385 -23.25 87.395 -23.25 86.375 C-20.775 85.88 -20.775 85.88 -18.25 85.375 C-18.18709134 70.94480458 -18.18709134 70.94480458 -22.25 57.375 C-24.60589996 55.49448415 -24.60589996 55.49448415 -27.25 54.375 C-29.93901832 51.68598168 -31.12162421 50.14525473 -31.75 46.375 C-31.1350867 42.68552021 -29.87288407 40.99788407 -27.25 38.375 C-26.59 38.375 -25.93 38.375 -25.25 38.375 C-25.745 36.89 -25.745 36.89 -26.25 35.375 C-28.57671865 34.35970459 -30.9103447 33.36011802 -33.25 32.375 C-36.20508315 27.94237528 -36.03177673 23.57381525 -35.25 18.375 C-32.9375 15.875 -32.9375 15.875 -30.25 14.375 C-28.6126952 12.80318739 -27.0811664 11.18740711 -25.5625 9.5 C-18.11705492 2.65823966 -10.0299716 -0.02280576 0 0 Z M-1.25 79.375 C-1.25 81.025 -1.25 82.675 -1.25 84.375 C-0.59 84.375 0.07 84.375 0.75 84.375 C0.75 82.725 0.75 81.075 0.75 79.375 C0.09 79.375 -0.57 79.375 -1.25 79.375 Z " fill="#3B617A" transform="translate(45.25,5.625)"/>
<path d="M0 0 C0.38218767 1.65614657 0.71395102 3.32457024 1 5 C0 6 0 6 -3.0625 6.0625 C-4.031875 6.041875 -5.00125 6.02125 -6 6 C-6 6.33 -6 6.66 -6 7 C-3.03 7 -0.06 7 3 7 C3.33 6.01 3.66 5.02 4 4 C5.9375 4.8125 5.9375 4.8125 8 6 C8.33 6.99 8.66 7.98 9 9 C9.33 8.34 9.66 7.68 10 7 C11.15757813 6.93941406 12.31515625 6.87882812 13.5078125 6.81640625 C15.04688457 6.73194498 16.58594655 6.64729982 18.125 6.5625 C18.88554688 6.52318359 19.64609375 6.48386719 20.4296875 6.44335938 C24.68509203 6.20490998 28.80370826 5.79769763 33 5 C35.70799321 8.86245348 36.36769898 11.42881067 36.25 16.125 C36.23453125 17.15882812 36.2190625 18.19265625 36.203125 19.2578125 C36 22 36 22 35 25 C34.76512915 28.74488521 34.61833464 32.48878132 34.4765625 36.23828125 C33.98572735 40.11266032 32.9455989 42.64462221 31 46 C28.36 46 25.72 46 23 46 C22.80508548 44.54263913 22.61930642 43.08405407 22.4375 41.625 C22.28087891 40.40683594 22.28087891 40.40683594 22.12109375 39.1640625 C22 37 22 37 23 35 C19.7 35 16.4 35 13 35 C12.34 33.68 11.68 32.36 11 31 C10.34 31 9.68 31 9 31 C9 31.66 9 32.32 9 33 C4.18797696 30.9641441 2.04569467 27.71577808 0 23 C-0.38745435 20.17780165 -0.25571746 17.86403558 0 15 C1.65 15 3.3 15 5 15 C5 16.98 5 18.96 5 21 C6.41577477 19.81575674 6.41577477 19.81575674 6.0625 16.4375 C6.0315625 14.7359375 6.0315625 14.7359375 6 13 C4.89591797 13.08701172 4.89591797 13.08701172 3.76953125 13.17578125 C-4.20650636 13.54455446 -4.20650636 13.54455446 -8.1875 10.8125 C-10.14559996 7.77406903 -10.74103062 6.51989546 -10 3 C-7.65127184 -1.00665392 -4.23309225 -0.239609 0 0 Z " fill="#406379" transform="translate(27,46)"/>
<path d="M0 0 C0.88494141 0.00749268 1.76988281 0.01498535 2.68164062 0.02270508 C18.17682805 0.27819868 18.17682805 0.27819868 22.41015625 4.4296875 C25.52274677 9.36878719 24.76962341 14.60624251 24.1875 20.25 C22.90222334 24.17347613 22.02723151 25.62558426 18.75 28.0625 C14.96739827 29.815413 11.79765162 30.37574427 7.640625 30.34765625 C6.79628906 30.34443359 5.95195313 30.34121094 5.08203125 30.33789062 C4.20933594 30.32951172 3.33664063 30.32113281 2.4375 30.3125 C1.54933594 30.30798828 0.66117188 30.30347656 -0.25390625 30.29882812 C-2.44017329 30.287074 -4.62630179 30.27064249 -6.8125 30.25 C-6.4825 27.94 -6.1525 25.63 -5.8125 23.25 C-5.1525 23.25 -4.4925 23.25 -3.8125 23.25 C-3.8125 22.59 -3.8125 21.93 -3.8125 21.25 C-5.1325 20.92 -6.4525 20.59 -7.8125 20.25 C-7.85117187 19.31027344 -7.85117187 19.31027344 -7.890625 18.3515625 C-7.94734375 17.53429687 -8.0040625 16.71703125 -8.0625 15.875 C-8.10890625 15.06289063 -8.1553125 14.25078125 -8.203125 13.4140625 C-8.40421875 12.69992188 -8.6053125 11.98578125 -8.8125 11.25 C-10.1325 10.59 -11.4525 9.93 -12.8125 9.25 C-13.1425 12.55 -13.4725 15.85 -13.8125 19.25 C-14.8025 19.58 -15.7925 19.91 -16.8125 20.25 C-17.1425 22.89 -17.4725 25.53 -17.8125 28.25 C-18.47916667 26.91666667 -19.14583333 25.58333333 -19.8125 24.25 C-20.15667969 23.67636719 -20.50085938 23.10273437 -20.85546875 22.51171875 C-22.87888232 17.72985567 -22.43010225 12.31948514 -21.8125 7.25 C-19.14319628 3.12471243 -16.54250312 1.90885843 -11.87963867 0.64916992 C-7.94079583 -0.11143101 -3.99849442 -0.04406781 0 0 Z " fill="#3E5F71" transform="translate(43.8125,14.75)"/>
<path d="M0 0 C0.74217773 0.00161133 1.48435547 0.00322266 2.24902344 0.00488281 C10.59306605 0.18950154 18.76379797 2.20172916 24.75 8.375 C25.224375 9.220625 25.69875 10.06625 26.1875 10.9375 C28.19826366 14.07429131 30.41430935 14.8521847 33.75 16.375 C35.73037413 20.33574826 35.30471866 25.06813939 34.75 29.375 C31.99975374 33.1467663 28.76686619 35.09515702 24.75 37.375 C24.09 38.035 23.43 38.695 22.75 39.375 C22.95393718 42.84193199 24.23415018 45.33276231 25.875 48.3125 C27.37961078 51.21229532 27.75134708 52.30360471 27.6875 55.6875 C26.72737963 58.43984506 26.08211027 59.67076557 23.75 61.375 C22.76 61.705 21.77 62.035 20.75 62.375 C20.09 63.365 19.43 64.355 18.75 65.375 C18.75 63.725 18.75 62.075 18.75 60.375 C21.225 59.88 21.225 59.88 23.75 59.375 C24.36187657 52.52198242 22.94904786 48.79558906 18.75 43.375 C18.09 42.715 17.43 42.055 16.75 41.375 C17.65626784 40.0760161 18.57549537 38.78606833 19.5 37.5 C20.01046875 36.78070313 20.5209375 36.06140625 21.046875 35.3203125 C22.87474817 33.23251241 24.15439263 32.31615534 26.75 31.375 C28.07 31.375 29.39 31.375 30.75 31.375 C30.77703381 29.43757659 30.79641125 27.50004521 30.8125 25.5625 C30.82410156 24.48355469 30.83570312 23.40460937 30.84765625 22.29296875 C30.88624766 19.30987831 30.88624766 19.30987831 29.75 16.375 C28.698125 16.3440625 28.698125 16.3440625 27.625 16.3125 C24.41292582 15.26508451 24.04357994 14.67266108 22.125 12.0625 C18.2066978 7.25367458 13.75036763 5.5808155 7.75 4.375 C-0.87190071 3.6252695 -9.28953189 3.54479694 -17.25 7.375 C-18.19875 7.82875 -19.1475 8.2825 -20.125 8.75 C-23.64738712 11.44359015 -25.07684853 14.19324118 -25.71875 18.57421875 C-25.79205421 26.7568009 -24.7106649 32.4609694 -20.25 39.375 C-21.219375 39.849375 -22.18875 40.32375 -23.1875 40.8125 C-26.05477437 42.07693947 -26.05477437 42.07693947 -27.25 43.375 C-27.07432642 46.85555874 -27.07432642 46.85555874 -26.25 50.375 C-22.96508627 52.56494248 -21.41904361 52.72777339 -17.5625 53 C-16.56863281 53.07476562 -15.57476563 53.14953125 -14.55078125 53.2265625 C-13.79152344 53.27554688 -13.03226563 53.32453125 -12.25 53.375 C-11.92 56.015 -11.59 58.655 -11.25 61.375 C-11.91 61.375 -12.57 61.375 -13.25 61.375 C-13.25 59.395 -13.25 57.415 -13.25 55.375 C-14.9 55.375 -16.55 55.375 -18.25 55.375 C-17.27987071 62.44101636 -15.47263963 67.60513364 -11.25 73.375 C-12.24 73.375 -13.23 73.375 -14.25 73.375 C-14.25 72.715 -14.25 72.055 -14.25 71.375 C-14.91 71.375 -15.57 71.375 -16.25 71.375 C-16.25 75.995 -16.25 80.615 -16.25 85.375 C-16.91 85.375 -17.57 85.375 -18.25 85.375 C-18.28738281 84.19164063 -18.32476563 83.00828125 -18.36328125 81.7890625 C-18.50331726 69.19569333 -18.50331726 69.19569333 -22.25 57.375 C-24.60589996 55.49448415 -24.60589996 55.49448415 -27.25 54.375 C-29.93901832 51.68598168 -31.12162421 50.14525473 -31.75 46.375 C-31.1350867 42.68552021 -29.87288407 40.99788407 -27.25 38.375 C-26.59 38.375 -25.93 38.375 -25.25 38.375 C-25.745 36.89 -25.745 36.89 -26.25 35.375 C-28.57671865 34.35970459 -30.9103447 33.36011802 -33.25 32.375 C-36.20508315 27.94237528 -36.03177673 23.57381525 -35.25 18.375 C-32.9375 15.875 -32.9375 15.875 -30.25 14.375 C-28.6126952 12.80318739 -27.0811664 11.18740711 -25.5625 9.5 C-18.11705492 2.65823966 -10.0299716 -0.02280576 0 0 Z " fill="#2F4456" transform="translate(45.25,5.625)"/>
<path d="M0 0 C0.94148531 2.82445592 1.07311695 4.14171618 0.87890625 7.01171875 C0.83056641 7.76904297 0.78222656 8.52636719 0.73242188 9.30664062 C0.67634766 10.09232422 0.62027344 10.87800781 0.5625 11.6875 C0.51029297 12.48478516 0.45808594 13.28207031 0.40429688 14.10351562 C0.27480978 16.06936522 0.13809959 18.03473665 0 20 C1.65 20.33 3.3 20.66 5 21 C5 21.99 5 22.98 5 24 C-9.75764481 27.16016095 -26.36770373 28.87743209 -41 24 C-41 23.01 -41 22.02 -41 21 C-37.535 20.505 -37.535 20.505 -34 20 C-34 15.38 -34 10.76 -34 6 C-33.34 6 -32.68 6 -32 6 C-32 6.66 -32 7.32 -32 8 C-30.35 8 -28.7 8 -27 8 C-27 7.34 -27 6.68 -27 6 C-26.34 6 -25.68 6 -25 6 C-24.01 7.485 -24.01 7.485 -23 9 C-20.57478506 9.58189266 -20.57478506 9.58189266 -17.875 9.6875 C-16.26625 9.790625 -14.6575 9.89375 -13 10 C-13 13.63 -13 17.26 -13 21 C-9.04 20.505 -9.04 20.505 -5 20 C-3.15433468 16.01606389 -2.63977171 12.55623317 -2.375 8.1875 C-2.30023438 7.02605469 -2.22546875 5.86460938 -2.1484375 4.66796875 C-2.09945312 3.78753906 -2.05046875 2.90710938 -2 2 C-1.34 2 -0.68 2 0 2 C0 1.34 0 0.68 0 0 Z M-19 14 C-19 15.65 -19 17.3 -19 19 C-18.34 19 -17.68 19 -17 19 C-17 17.35 -17 15.7 -17 14 C-17.66 14 -18.32 14 -19 14 Z " fill="#366079" transform="translate(63,71)"/>
<path d="M0 0 C0.88204102 0.00386719 1.76408203 0.00773438 2.67285156 0.01171875 C8.73482176 0.09233601 14.30941949 0.68251186 20.1875 2.25 C22.29178384 7.37919186 22.40505666 11.8110835 22.1875 17.25 C21.5275 16.92 20.8675 16.59 20.1875 16.25 C19.8575 16.91 19.5275 17.57 19.1875 18.25 C16.80185923 17.67415568 14.52067216 17.02772405 12.1875 16.25 C12.1875 16.91 12.1875 17.57 12.1875 18.25 C10.5375 17.92 8.8875 17.59 7.1875 17.25 C7.5175 15.27 7.8475 13.29 8.1875 11.25 C-0.87594673 8.56640963 -9.41703769 7.6222246 -18.8125 7.25 C-17.8125 5.25 -17.8125 5.25 -14.8125 4.25 C-15.4725 3.59 -16.1325 2.93 -16.8125 2.25 C-11.10015396 0.30208227 -6.01306777 -0.06346246 0 0 Z " fill="#4F7184" transform="translate(43.8125,14.75)"/>
<path d="M0 0 C2.80512221 4.39469146 2.77629108 8.81360962 2.875 13.9375 C1.67769602 11.58365132 0.58668008 9.251024 -0.4375 6.8125 C-1.8661257 3.82955729 -1.8661257 3.82955729 -4.4375 2.625 C-10.62943331 1.04101706 -16.57997652 0.72548371 -22.9375 0.6875 C-23.78892578 0.666875 -24.64035156 0.64625 -25.51757812 0.625 C-31.3644312 0.58937561 -36.86513644 1.19841734 -42.125 3.9375 C-44.49224448 7.48836672 -44.36579681 9.04924259 -44.3125 13.25 C-44.30605469 14.35988281 -44.29960938 15.46976563 -44.29296875 16.61328125 C-44.1321722 19.79555714 -43.71653978 22.80943763 -43.125 25.9375 C-43.785 25.9375 -44.445 25.9375 -45.125 25.9375 C-48.92707026 19.32169605 -48.8883606 13.40245653 -48.125 5.9375 C-45.96520902 0.58497452 -42.34828648 -1.44511648 -37.44140625 -4.08203125 C-25.64241867 -9.07620643 -10.42528807 -6.88069013 0 0 Z " fill="#ECF2F5" transform="translate(67.125,15.0625)"/>
<path d="M0 0 C0.66 0.66 1.32 1.32 2 2 C2.66 2.144375 3.32 2.28875 4 2.4375 C6 3 6 3 8 6 C8.23046875 8.15625 8.23046875 8.15625 8.1875 10.5 C8.18105469 11.2734375 8.17460938 12.046875 8.16796875 12.84375 C8 15 8 15 7 18 C5.22265625 18.58984375 5.22265625 18.58984375 3.0625 18.9375 C0.89945625 19.3647988 0.89945625 19.3647988 -1 20 C-2.25827123 21.84982472 -2.25827123 21.84982472 -3 24 C-7.93408267 29.09324663 -15.08786319 31.63480053 -22.0546875 32.28515625 C-25.99819827 32.32176709 -29.24235984 32.25254672 -33 31 C-32.34 29.35 -31.68 27.7 -31 26 C-29.7934375 25.96261719 -28.586875 25.92523438 -27.34375 25.88671875 C-25.72913822 25.82100781 -24.11455622 25.75456229 -22.5 25.6875 C-21.70851563 25.66494141 -20.91703125 25.64238281 -20.1015625 25.61914062 C-14.49503186 25.36638719 -10.11846822 24.34667314 -5 22 C-1.78530581 17.74830769 -1.53975951 13.33907794 -1.2109375 8.171875 C-1 6 -1 6 0 4 C0 2.68 0 1.36 0 0 Z " fill="#9CC7D8" transform="translate(69,19)"/>
<path d="M0 0 C0.33 0 0.66 0 1 0 C1.33 4.62 1.66 9.24 2 14 C2.66 14 3.32 14 4 14 C4 14.66 4 15.32 4 16 C4.928125 16.04125 5.85625 16.0825 6.8125 16.125 C10 17 10 17 11.875 20.0625 C12.24625 21.031875 12.6175 22.00125 13 23 C12.030625 23.474375 11.06125 23.94875 10.0625 24.4375 C7.19522563 25.70193947 7.19522563 25.70193947 6 27 C6.17567358 30.48055874 6.17567358 30.48055874 7 34 C10.28491373 36.18994248 11.83095639 36.35277339 15.6875 36.625 C16.68136719 36.69976562 17.67523437 36.77453125 18.69921875 36.8515625 C19.45847656 36.90054688 20.21773437 36.94953125 21 37 C21.33 39.64 21.66 42.28 22 45 C21.34 45 20.68 45 20 45 C20 43.02 20 41.04 20 39 C18.35 39 16.7 39 15 39 C15.97012929 46.06601636 17.77736037 51.23013364 22 57 C21.01 57 20.02 57 19 57 C19 56.34 19 55.68 19 55 C18.34 55 17.68 55 17 55 C17 59.62 17 64.24 17 69 C16.34 69 15.68 69 15 69 C14.96261719 67.81664063 14.92523437 66.63328125 14.88671875 65.4140625 C14.74668274 52.82069333 14.74668274 52.82069333 11 41 C8.64410004 39.11948415 8.64410004 39.11948415 6 38 C3.31098168 35.31098168 2.12837579 33.77025473 1.5 30 C2.1149133 26.31052021 3.37711593 24.62288407 6 22 C6.66 22 7.32 22 8 22 C7.67 21.01 7.34 20.02 7 19 C4.67328135 17.98470459 2.3396553 16.98511802 0 16 C-2.24234009 12.63648987 -2.27098215 11.37689944 -2.25 7.4375 C-2.25515625 6.46683594 -2.2603125 5.49617188 -2.265625 4.49609375 C-2 2 -2 2 0 0 Z " fill="#254358" transform="translate(12,22)"/>
<path d="M0 0 C3.875 0.875 3.875 0.875 5 2 C5.07179964 3.51928038 5.08392007 5.04167482 5.0625 6.5625 C5.05347656 7.38878906 5.04445313 8.21507812 5.03515625 9.06640625 C5.02355469 9.70449219 5.01195313 10.34257813 5 11 C6.32 11.33 7.64 11.66 9 12 C9 12.66 9 13.32 9 14 C8.39671875 14.24492188 7.7934375 14.48984375 7.171875 14.7421875 C4.61035221 16.22565933 3.72499008 17.58473931 2.25 20.125 C1.82203125 20.84945312 1.3940625 21.57390625 0.953125 22.3203125 C0.63859375 22.87460937 0.3240625 23.42890625 0 24 C1.32 24.33 2.64 24.66 4 25 C3.67 25.99 3.34 26.98 3 28 C2.01 27.34 1.02 26.68 0 26 C-0.33 27.32 -0.66 28.64 -1 30 C-3.97 30 -6.94 30 -10 30 C-10 29.01 -10 28.02 -10 27 C-8.02 27 -6.04 27 -4 27 C-4 25.68 -4 24.36 -4 23 C-5.65 22.67 -7.3 22.34 -9 22 C-8.34 21.34 -7.68 20.68 -7 20 C-7.33 19.01 -7.66 18.02 -8 17 C-4.73239437 11.36619718 -4.73239437 11.36619718 -2 10 C-1.31068656 7.65092125 -1.31068656 7.65092125 -0.875 4.9375 C-0.62363281 3.55884766 -0.62363281 3.55884766 -0.3671875 2.15234375 C-0.24601562 1.44207031 -0.12484375 0.73179688 0 0 Z " fill="#32586F" transform="translate(31,24)"/>
<path d="M0 0 C3.18882924 4.76125193 2.57429205 10.52321484 2 16 C0.79249417 19.97107589 -0.44221044 23.11876868 -4.140625 25.2109375 C-5.06101562 25.60152344 -5.06101562 25.60152344 -6 26 C-5.690625 24.783125 -5.38125 23.56625 -5.0625 22.3125 C-3.70131794 16.26923779 -3.36241197 10.17054072 -3 4 C-3.65355469 4.16371094 -4.30710937 4.32742187 -4.98046875 4.49609375 C-8.76991774 5.12848563 -12.48490951 5.10696709 -16.3125 5.0625 C-17.05306641 5.05798828 -17.79363281 5.05347656 -18.55664062 5.04882812 C-20.37112899 5.03712175 -22.18557534 5.01918898 -24 5 C-24 3.68 -24 2.36 -24 1 C-22.19402344 0.90912109 -22.19402344 0.90912109 -20.3515625 0.81640625 C-18.77602923 0.73200268 -17.20050904 0.64735459 -15.625 0.5625 C-14.8309375 0.52318359 -14.036875 0.48386719 -13.21875 0.44335938 C-0.74928581 -0.24351789 -0.74928581 -0.24351789 0 0 Z " fill="#C4DAE3" transform="translate(61,52)"/>
<path d="M0 0 C3 1 3 1 4 3 C4.98920425 16.77276685 4.98920425 16.77276685 1 22 C-3.33573182 25.22400571 -7.22622962 26.13360656 -12.546875 26.09765625 C-13.39121094 26.09443359 -14.23554687 26.09121094 -15.10546875 26.08789062 C-15.97816406 26.07951172 -16.85085937 26.07113281 -17.75 26.0625 C-18.63816406 26.05798828 -19.52632812 26.05347656 -20.44140625 26.04882812 C-22.62767329 26.037074 -24.81380179 26.02064249 -27 26 C-26.34 25.67 -25.68 25.34 -25 25 C-24.34444881 22.47266765 -24.34444881 22.47266765 -24 20 C-23.34 20 -22.68 20 -22 20 C-21.67 20.66 -21.34 21.32 -21 22 C-20.29875 21.649375 -19.5975 21.29875 -18.875 20.9375 C-15.456822 19.82287674 -13.4928273 20.34509488 -10 21 C-7.39719432 20.67958603 -7.39719432 20.67958603 -5 20 C-4.278125 19.9175 -3.55625 19.835 -2.8125 19.75 C-0.82214491 19.12777964 -0.82214491 19.12777964 0.25 17.0625 C1.62693679 11.44000811 1.60936017 5.57482362 0 0 Z " fill="#31556B" transform="translate(64,19)"/>
<path d="M0 0 C2.3431213 0.25561323 4.67843403 0.59270772 7 1 C7.33 1.66 7.66 2.32 8 3 C9.32 3 10.64 3 12 3 C12.33 2.34 12.66 1.68 13 1 C15.32156597 0.59270772 17.6568787 0.25561323 20 0 C19.5252771 4.98459049 18.54143538 8.37218815 15 12 C11.45093141 13.00716811 8.53915795 13.06346265 5 12 C2.53405098 9.67074439 1.10781508 7.19517192 0 4 C0 2.68 0 1.36 0 0 Z " fill="#DBEBF1" transform="translate(35,69)"/>
<path d="M0 0 C0 2.64 0 5.28 0 8 C-4.74263786 8.72345323 -8.29773769 9.13994238 -13 8 C-13.33 8.33 -13.66 8.66 -14 9 C-19.52941176 9.23529412 -19.52941176 9.23529412 -22 8 C-22 5.69 -22 3.38 -22 1 C-18.70837401 0.83252349 -15.41669287 0.66615639 -12.125 0.5 C-11.18785156 0.45230469 -10.25070313 0.40460937 -9.28515625 0.35546875 C-8.38925781 0.31035156 -7.49335937 0.26523437 -6.5703125 0.21875 C-5.74289551 0.17685547 -4.91547852 0.13496094 -4.06298828 0.09179688 C-2.70965236 0.03157743 -1.35467505 0 0 0 Z " fill="#E9EFF2" transform="translate(56,58)"/>
<path d="M0 0 C0.38218767 1.65614657 0.71395102 3.32457024 1 5 C0 6 0 6 -3.0625 6.0625 C-4.031875 6.041875 -5.00125 6.02125 -6 6 C-6 6.33 -6 6.66 -6 7 C-3.03 7 -0.06 7 3 7 C3.33 6.01 3.66 5.02 4 4 C5.32 4.66 6.64 5.32 8 6 C7.64978759 8.53903996 7.15988127 9.82093298 5.4375 11.75 C1.96635861 13.53007251 -1.23396621 13.79795171 -5 13 C-8.20147328 10.6655924 -9.75157869 9.3042119 -10.5 5.375 C-10 3 -10 3 -8.9375 1.1875 C-6.00731249 -0.60842137 -3.3527047 -0.18977574 0 0 Z " fill="#DBE8EE" transform="translate(27,46)"/>
<path d="M0 0 C2.22711881 1.76511012 2.94142366 2.68466404 3.46875 5.5234375 C3.55332768 13.24115061 3.55332768 13.24115061 0.8125 17 C-1.73397127 18.81082401 -4.28372805 20.45833214 -7 22 C-7.66 22.66 -8.32 23.32 -9 24 C-8.79606282 27.46693199 -7.51584982 29.95776231 -5.875 32.9375 C-4.37038922 35.83729532 -3.99865292 36.92860471 -4.0625 40.3125 C-5.02262037 43.06484506 -5.66788973 44.29576557 -8 46 C-9.485 46.495 -9.485 46.495 -11 47 C-11.66 47.99 -12.32 48.98 -13 50 C-13 48.35 -13 46.7 -13 45 C-10.525 44.505 -10.525 44.505 -8 44 C-7.38812343 37.14698242 -8.80095214 33.42058906 -13 28 C-13.66 27.34 -14.32 26.68 -15 26 C-11.09782251 19.77720938 -8.15794396 16.90878506 -1 15 C-0.34 15 0.32 15 1 15 C1.09038099 9.84828377 0.84681133 5.08086796 0 0 Z " fill="#294456" transform="translate(77,21)"/>
<path d="M0 0 C1.98 0 3.96 0 6 0 C6 0.99 6 1.98 6 3 C7.91697937 2.85833643 9.83357723 2.71150416 11.75 2.5625 C13.35101563 2.44068359 13.35101563 2.44068359 14.984375 2.31640625 C17.43679962 2.05909227 19.63921291 1.68187782 22 1 C22 1.66 22 2.32 22 3 C11.91512829 8.65736706 -1.10726845 7.81368141 -12 5 C-13.67866258 4.36414296 -15.34962227 3.70602802 -17 3 C-16.67 2.34 -16.34 1.68 -16 1 C-10.72 1.66 -5.44 2.32 0 3 C0 2.01 0 1.02 0 0 Z " fill="#72919D" transform="translate(42,91)"/>
<path d="M0 0 C0.99 0.33 1.98 0.66 3 1 C4.20568053 5.67201205 4.09382426 10.21496292 4 15 C3.34 14.67 2.68 14.34 2 14 C1.67 14.66 1.34 15.32 1 16 C0.01 16 -0.98 16 -2 16 C-2.33 15.01 -2.66 14.02 -3 13 C-3.99 13 -4.98 13 -6 13 C-6.33 13.66 -6.66 14.32 -7 15 C-7.66 15 -8.32 15 -9 15 C-7.77686997 8.63972386 -4.71331777 4.33115687 0 0 Z " fill="#457585" transform="translate(62,17)"/>
<path d="M0 0 C3.73757294 1.58128086 7.36654198 3.18327099 11 5 C10.67 7.97 10.34 10.94 10 14 C7.03 14 4.06 14 1 14 C-0.04976964 10.85069107 -0.10131595 8.61185544 -0.0625 5.3125 C-0.05347656 4.31863281 -0.04445313 3.32476562 -0.03515625 2.30078125 C-0.02355469 1.54152344 -0.01195313 0.78226562 0 0 Z " fill="#E6EFF1" transform="translate(30,78)"/>
<path d="M0 0 C0.05410687 1.77049689 0.09284119 3.54146849 0.125 5.3125 C0.14820313 6.29863281 0.17140625 7.28476563 0.1953125 8.30078125 C0 11 0 11 -2 14 C-3.9453125 14.29296875 -3.9453125 14.29296875 -6.125 14.1875 C-8.043125 14.0946875 -8.043125 14.0946875 -10 14 C-10.33 11.03 -10.66 8.06 -11 5 C-9.35538655 4.16426177 -7.70927487 3.33147118 -6.0625 2.5 C-4.68771484 1.80390625 -4.68771484 1.80390625 -3.28515625 1.09375 C-1 0 -1 0 0 0 Z " fill="#E3F0F5" transform="translate(60,78)"/>
<path d="M0 0 C1.98 0 3.96 0 6 0 C6.06058594 0.96421875 6.12117188 1.9284375 6.18359375 2.921875 C6.26738281 4.18515625 6.35117187 5.4484375 6.4375 6.75 C6.55931641 8.62945313 6.55931641 8.62945313 6.68359375 10.546875 C6.92515522 13.18317553 7.24283934 15.48037294 8 18 C6.35 17.67 4.7 17.34 3 17 C3 16.34 3 15.68 3 15 C2.34 15 1.68 15 1 15 C-0.44207941 12.11584117 -0.09394887 9.58278472 -0.0625 6.375 C-0.05347656 5.18648437 -0.04445313 3.99796875 -0.03515625 2.7734375 C-0.02355469 1.85820312 -0.01195312 0.94296875 0 0 Z " fill="#3D6173" transform="translate(13,21)"/>
<path d="M0 0 C1.32 0 2.64 0 4 0 C6.09740836 3.14611253 6.25328219 3.91188078 6.1875 7.5 C6.17783203 8.66015625 6.17783203 8.66015625 6.16796875 9.84375 C6 12 6 12 5 15 C2.69 15.66 0.38 16.32 -2 17 C-1.34 11.39 -0.68 5.78 0 0 Z " fill="#3F6C82" transform="translate(71,22)"/>
<path d="M0 0 C0.77923828 0.00902344 1.55847656 0.01804687 2.36132812 0.02734375 C4.26185447 0.05066309 6.16222008 0.08652414 8.0625 0.125 C8.0625 0.455 8.0625 0.785 8.0625 1.125 C7.27488281 1.13917969 6.48726562 1.15335937 5.67578125 1.16796875 C-4.71189735 1.62281385 -14.24780948 4.23498089 -22.9375 10.125 C-23.4325 11.011875 -23.9275 11.89875 -24.4375 12.8125 C-24.9325 13.575625 -25.4275 14.33875 -25.9375 15.125 C-28.625 15.4375 -28.625 15.4375 -30.9375 15.125 C-26.5082575 7.74292916 -20.76710992 3.8428373 -12.67578125 0.96484375 C-8.34336282 -0.00847909 -4.41670625 -0.09840134 0 0 Z " fill="#213948" transform="translate(45.9375,5.875)"/>
<path d="M0 0 C0.99 0 1.98 0 3 0 C2.98839844 1.03640625 2.97679687 2.0728125 2.96484375 3.140625 C2.95546163 4.51041486 2.94636188 5.88020668 2.9375 7.25 C2.92912109 7.93191406 2.92074219 8.61382812 2.91210938 9.31640625 C2.89518586 12.8026497 3.1466503 15.58660119 4 19 C0.7 19 -2.6 19 -6 19 C-6 18.01 -6 17.02 -6 16 C-4.02 16 -2.04 16 0 16 C0 14.68 0 13.36 0 12 C-1.65 11.67 -3.3 11.34 -5 11 C-4.34 10.34 -3.68 9.68 -3 9 C-3.33 8.01 -3.66 7.02 -4 6 C-2.25 2.8125 -2.25 2.8125 0 0 Z " fill="#537489" transform="translate(27,35)"/>
<path d="M0 0 C0.66 0 1.32 0 2 0 C2.17700355 4.60209225 2.10814567 6.78370866 0 11 C5.61 11.33 11.22 11.66 17 12 C13.36804504 14.42130331 11.61650652 14.21022785 7.3125 14.125 C6.13300781 14.10695313 4.95351563 14.08890625 3.73828125 14.0703125 C2.83464844 14.04710937 1.93101563 14.02390625 1 14 C0.67 15.32 0.34 16.64 0 18 C-1.35439668 15.29120665 -1.06501451 12.99066732 -1 10 C-2.32 9.67 -3.64 9.34 -5 9 C-3.7580393 5.56072421 -2.44259716 2.74792181 0 0 Z " fill="#335C73" transform="translate(36,39)"/>
<path d="M0 0 C0.77126221 0.00298096 1.54252441 0.00596191 2.3371582 0.0090332 C3.19374023 0.00967773 4.05032227 0.01032227 4.93286133 0.01098633 C6.271875 0.03515625 6.271875 0.03515625 7.63793945 0.05981445 C8.5112793 0.0565918 9.38461914 0.05336914 10.28442383 0.05004883 C15.81316415 0.0954679 20.67772388 0.66696759 25.95043945 2.37231445 C26.28043945 3.03231445 26.61043945 3.69231445 26.95043945 4.37231445 C16.39043945 4.04231445 5.83043945 3.71231445 -5.04956055 3.37231445 C-2.04956055 0.37231445 -2.04956055 0.37231445 0 0 Z " fill="#496578" transform="translate(36.049560546875,14.627685546875)"/>
<path d="M0 0 C0.33 0 0.66 0 1 0 C1.33 4.62 1.66 9.24 2 14 C2.66 14 3.32 14 4 14 C4 14.66 4 15.32 4 16 C4.928125 16.04125 5.85625 16.0825 6.8125 16.125 C10 17 10 17 11.875 20.0625 C12.24625 21.031875 12.6175 22.00125 13 23 C9.04 23.495 9.04 23.495 5 24 C5.33 23.34 5.66 22.68 6 22 C6.66 22 7.32 22 8 22 C7.67 21.01 7.34 20.02 7 19 C4.67328135 17.98470459 2.3396553 16.98511802 0 16 C-2.24234009 12.63648987 -2.27098215 11.37689944 -2.25 7.4375 C-2.25515625 6.46683594 -2.2603125 5.49617188 -2.265625 4.49609375 C-2 2 -2 2 0 0 Z " fill="#283743" transform="translate(12,22)"/>
<path d="M0 0 C0.66 1.32 1.32 2.64 2 4 C1.34644531 4.52851563 0.69289063 5.05703125 0.01953125 5.6015625 C-2.59753261 8.70964221 -2.44801103 10.36574267 -2.3125 14.375 C-2.28800781 15.47585937 -2.26351563 16.57671875 -2.23828125 17.7109375 C-2.01001142 20.86180961 -1.57677572 23.89572743 -1 27 C-1.66 27 -2.32 27 -3 27 C-6.78548494 20.41305538 -6.81874704 14.43915319 -6 7 C-4.76006173 3.71096186 -3.21858021 1.60929011 0 0 Z " fill="#B1CFDE" transform="translate(25,14)"/>
<path d="M0 0 C0.94148531 2.82445592 1.07311695 4.14171618 0.87890625 7.01171875 C0.83056641 7.76904297 0.78222656 8.52636719 0.73242188 9.30664062 C0.67634766 10.09232422 0.62027344 10.87800781 0.5625 11.6875 C0.51029297 12.48478516 0.45808594 13.28207031 0.40429688 14.10351562 C0.27480978 16.06936522 0.13809959 18.03473665 0 20 C1.65 20.33 3.3 20.66 5 21 C5 21.99 5 22.98 5 24 C1.04 24.495 1.04 24.495 -3 25 C-1.68 24.34 -0.36 23.68 1 23 C1 22.34 1 21.68 1 21 C-0.98 21.33 -2.96 21.66 -5 22 C-4.690625 21.113125 -4.38125 20.22625 -4.0625 19.3125 C-2.42489586 13.69122053 -2.33225589 7.81447802 -2 2 C-1.34 2 -0.68 2 0 2 C0 1.34 0 0.68 0 0 Z " fill="#233C4B" transform="translate(63,71)"/>
<path d="M0 0 C0 0.66 0 1.32 0 2 C0.60062256 1.96447021 1.20124512 1.92894043 1.82006836 1.89233398 C4.52559686 1.73531319 7.23150757 1.58630203 9.9375 1.4375 C11.35579102 1.35338867 11.35579102 1.35338867 12.80273438 1.26757812 C13.70185547 1.21923828 14.60097656 1.17089844 15.52734375 1.12109375 C16.35999756 1.0739624 17.19265137 1.02683105 18.05053711 0.97827148 C20 1 20 1 21 2 C21.14115161 4.67058851 21.04247107 7.32432238 21 10 C20.67 10 20.34 10 20 10 C20 7.69 20 5.38 20 3 C19.01 3.495 19.01 3.495 18 4 C16.47851674 4.08372659 14.95344222 4.10730027 13.4296875 4.09765625 C12.53378906 4.09443359 11.63789062 4.09121094 10.71484375 4.08789062 C9.77769531 4.07951172 8.84054688 4.07113281 7.875 4.0625 C6.93011719 4.05798828 5.98523437 4.05347656 5.01171875 4.04882812 C2.67441613 4.03702357 0.33723939 4.02055759 -2 4 C-2 6.31 -2 8.62 -2 11 C-2.33 11 -2.66 11 -3 11 C-3 8.69 -3 6.38 -3 4 C-3.99 3.67 -4.98 3.34 -6 3 C-2.25 0 -2.25 0 0 0 Z " fill="#355162" transform="translate(36,55)"/>
<path d="M0 0 C0.66 0.33 1.32 0.66 2 1 C2 5.62 2 10.24 2 15 C4.97 15 7.94 15 11 15 C11.33 13.68 11.66 12.36 12 11 C12.33 12.98 12.66 14.96 13 17 C11.083412 17.02712153 9.1667127 17.04645097 7.25 17.0625 C5.64898437 17.07990234 5.64898437 17.07990234 4.015625 17.09765625 C1.46631499 17.01510087 -0.57933591 16.74617558 -3 16 C-1.68 16.99 -0.36 17.98 1 19 C-1.64 18.67 -4.28 18.34 -7 18 C-7 17.01 -7 16.02 -7 15 C-3.535 14.505 -3.535 14.505 0 14 C0 9.38 0 4.76 0 0 Z " fill="#466270" transform="translate(29,77)"/>
<path d="M0 0 C1.65 0 3.3 0 5 0 C5.66 5.28 6.32 10.56 7 16 C3.41650918 14.80550306 2.55623389 13.30054082 0.78515625 10.0546875 C-0.52475096 6.62677111 -0.25495886 3.63316378 0 0 Z " fill="#A0C1D0" transform="translate(27,61)"/>
<path d="M0 0 C2.7241562 2.7241562 2.3308802 4.3218734 2.375 8.125 C2.27843806 13.9509038 1.59078065 18.33083794 -2 23 C-4.75 25.5 -4.75 25.5 -7 27 C-7 26.34 -7 25.68 -7 25 C-7.66 24.67 -8.32 24.34 -9 24 C-8.21625 23.608125 -7.4325 23.21625 -6.625 22.8125 C-3.45474812 20.62351656 -2.94619276 19.70592165 -2 16 C-1.68468755 13.40379101 -1.43770586 10.81530221 -1.24609375 8.20703125 C-1 6 -1 6 0 4 C0 2.68 0 1.36 0 0 Z " fill="#8AB8CB" transform="translate(69,19)"/>
<path d="M0 0 C5.00424466 1.28015561 7.96658641 2.75322097 11 7 C11.70215597 10.66566721 11.92819312 14.27257011 12 18 C10.80269602 15.64615132 9.71168008 13.313524 8.6875 10.875 C7.2588743 7.89205729 7.2588743 7.89205729 4.6875 6.6875 C1.8039006 5.94983504 -1.05250226 5.41127875 -4 5 C-3.01 4.34 -2.02 3.68 -1 3 C-0.67 2.01 -0.34 1.02 0 0 Z " fill="#D9E8EF" transform="translate(58,11)"/>
<path d="M0 0 C0.75539063 -0.00773438 1.51078125 -0.01546875 2.2890625 -0.0234375 C6.41353558 -0.00901627 10.00517368 0.04176618 13.625 2.25 C14.4375 4.375 14.4375 4.375 14.625 6.25 C14.00496094 6.04503906 13.38492188 5.84007812 12.74609375 5.62890625 C4.66768871 3.17128376 -2.98090627 2.57851379 -11.375 2.25 C-7.55251452 -0.29832365 -4.42502471 -0.04484822 0 0 Z " fill="#324654" transform="translate(49.375,6.75)"/>
<path d="M0 0 C-1.32 0.99 -2.64 1.98 -4 3 C-3.73606499 6.43230448 -3.73606499 6.43230448 -3 10 C0.44450737 12.29633824 2.93812283 12.54016485 7 13 C7 13.33 7 13.66 7 14 C-0.20877817 15.34400949 -0.20877817 15.34400949 -3.875 13.75 C-6 12 -6 12 -8 9 C-8.33957563 4.92509248 -8.31332486 3.46998729 -6 0 C-3 -1 -3 -1 0 0 Z " fill="#334857" transform="translate(22,46)"/>
<path d="M0 0 C4.44989627 2.22494813 6.20951122 4.49580167 8 9 C8.25 12.4375 8.25 12.4375 8 15 C6.68 15.33 5.36 15.66 4 16 C2.68 10.72 1.36 5.44 0 0 Z " fill="#BDD3DD" transform="translate(62,48)"/>
<path d="M0 0 C5.28 0 10.56 0 16 0 C13 5 13 5 10.625 5.6640625 C9.75875 5.65117188 8.8925 5.63828125 8 5.625 C6.700625 5.64433594 6.700625 5.64433594 5.375 5.6640625 C3 5 3 5 0 0 Z " fill="#97C2D5" transform="translate(37,76)"/>
<path d="M0 0 C0.33 2.64 0.66 5.28 1 8 C0.34 8 -0.32 8 -1 8 C-1 6.02 -1 4.04 -1 2 C-2.65 2.33 -4.3 2.66 -6 3 C-6 6.63 -6 10.26 -6 14 C-8.23000641 11.76999359 -8.33604772 10.99173512 -8.875 8 C-9.55663294 4.6716884 -9.55663294 4.6716884 -12.125 2.5 C-12.74375 2.335 -13.3625 2.17 -14 2 C-9.32254906 0.74068629 -4.85257069 0 0 0 Z " fill="#203A4C" transform="translate(33,59)"/>
<path d="M0 0 C6.27 0 12.54 0 19 0 C16.05710046 2.94289954 13.88526342 2.97327103 9.765625 3.09765625 C8.60546875 3.08605469 7.4453125 3.07445312 6.25 3.0625 C5.07953125 3.05347656 3.9090625 3.04445312 2.703125 3.03515625 C1.81109375 3.02355469 0.9190625 3.01195312 0 3 C0 2.01 0 1.02 0 0 Z " fill="#C4DDE6" transform="translate(38,45)"/>
<path d="M0 0 C0.66 0 1.32 0 2 0 C2.33 4.62 2.66 9.24 3 14 C1.68 13.67 0.36 13.34 -1 13 C-2.5635348 9.87293041 -2.39958487 6.42017557 -2 3 C-1.34 2.01 -0.68 1.02 0 0 Z " fill="#A8CADB" transform="translate(15,23)"/>
<path d="M0 0 C2.97 0.495 2.97 0.495 6 1 C6 3.64 6 6.28 6 9 C3.69 9 1.38 9 -1 9 C-0.67 6.03 -0.34 3.06 0 0 Z M2 3 C2 4.65 2 6.3 2 8 C2.66 8 3.32 8 4 8 C4 6.35 4 4.7 4 3 C3.34 3 2.68 3 2 3 Z " fill="#213949" transform="translate(42,82)"/>
<path d="M0 0 C0.40729228 2.32156597 0.74438677 4.6568787 1 7 C0.01 7 -0.98 7 -2 7 C-2.33 6.34 -2.66 5.68 -3 5 C-6.3 5.33 -9.6 5.66 -13 6 C-13 5.01 -13 4.02 -13 3 C-11.21189234 2.30329584 -9.41937948 1.61788811 -7.625 0.9375 C-6.62726562 0.55464844 -5.62953125 0.17179687 -4.6015625 -0.22265625 C-2 -1 -2 -1 0 0 Z " fill="#3F677F" transform="translate(63,47)"/>
<path d="M0 0 C2.22711881 1.76511012 2.94142366 2.68466404 3.46875 5.5234375 C3.55315704 13.22558014 3.55315704 13.22558014 0.8125 17.0625 C-1.76904007 18.84089427 -4.01744001 20.062624 -7 21 C-7 19.68 -7 18.36 -7 17 C-4.36 16.34 -1.72 15.68 1 15 C1.09038099 9.84828377 0.84681133 5.08086796 0 0 Z " fill="#13252F" transform="translate(77,21)"/>
<path d="M0 0 C0 0.66 0 1.32 0 2 C-0.639375 2.165 -1.27875 2.33 -1.9375 2.5 C-4.16119241 3.781786 -4.16119241 3.781786 -4.48828125 5.9140625 C-4.7275978 7.93575155 -4.86893028 9.96841939 -5 12 C-5.99 12 -6.98 12 -8 12 C-8.33 9.03 -8.66 6.06 -9 3 C-2.25 0 -2.25 0 0 0 Z " fill="#9CC2D3" transform="translate(58,80)"/>
<path d="M0 0 C1.32 0.66 2.64 1.32 4 2 C4 3.98 4 5.96 4 8 C2.02 8.99 2.02 8.99 0 10 C-1 9 -1 9 -1.1328125 7.1875 C-1.13023438 6.465625 -1.12765625 5.74375 -1.125 5 C-1.12757812 4.278125 -1.13015625 3.55625 -1.1328125 2.8125 C-1 1 -1 1 0 0 Z " fill="#2BC7CD" transform="translate(31,25)"/>
<path d="M0 0 C2.5654594 2.5654594 2.54046087 4.47686668 3 8 C3.99 8 4.98 8 6 8 C5.34 11.3 4.68 14.6 4 18 C3.34 16.68 2.68 15.36 2 14 C1.44699219 13.04867187 1.44699219 13.04867187 0.8828125 12.078125 C-0.20976004 9.50622857 -0.19822829 7.53267504 -0.125 4.75 C-0.09792969 3.41195313 -0.09792969 3.41195313 -0.0703125 2.046875 C-0.04710938 1.37140625 -0.02390625 0.6959375 0 0 Z " fill="#2A5267" transform="translate(22,25)"/>
<path d="M0 0 C2.64508959 2.64508959 2.78233633 4.29971764 3 8 C1.32385364 11.88160209 -0.22981654 13.2973365 -4 15 C-4.66 15.99 -5.32 16.98 -6 18 C-6 16.35 -6 14.7 -6 13 C-4.35 12.67 -2.7 12.34 -1 12 C-0.67 8.04 -0.34 4.08 0 0 Z " fill="#1B2F3F" transform="translate(70,53)"/>
<path d="M0 0 C2.625 -0.1875 2.625 -0.1875 5 0 C5.38218767 1.65614657 5.71395102 3.32457024 6 5 C5 6 5 6 1.9375 6.0625 C0.968125 6.041875 -0.00125 6.02125 -1 6 C-1.33 5.01 -1.66 4.02 -2 3 C-1.34 2.01 -0.68 1.02 0 0 Z " fill="#ECF1F5" transform="translate(22,46)"/>
<path d="M0 0 C1.485 0.99 1.485 0.99 3 2 C3.328125 4.09375 3.328125 4.09375 3.25 6.5 C3.23453125 7.2940625 3.2190625 8.088125 3.203125 8.90625 C3 11 3 11 2 13 C1.01 13 0.02 13 -1 13 C-0.67 8.71 -0.34 4.42 0 0 Z " fill="#BCD7E6" transform="translate(74,23)"/>
<path d="M0 0 C1 3 1 3 0.36328125 4.97265625 C0.01652344 5.66230469 -0.33023438 6.35195312 -0.6875 7.0625 C-1.02136719 7.75472656 -1.35523438 8.44695312 -1.69921875 9.16015625 C-3 11 -3 11 -7 13 C-6.34 10.03 -5.68 7.06 -5 4 C-4.34 4 -3.68 4 -3 4 C-1.36323743 2.0399719 -1.36323743 2.0399719 0 0 Z " fill="#9EC5D2" transform="translate(62,65)"/>
<path d="M0 0 C0.66 0.33 1.32 0.66 2 1 C1.67 2.98 1.34 4.96 1 7 C3.97 7 6.94 7 10 7 C9.01 8.485 9.01 8.485 8 10 C3.76001646 10.39259107 0.63266059 10.32490278 -3 8 C-3.36923077 3.44615385 -3.36923077 3.44615385 -1.5 1.1875 C-1.005 0.795625 -0.51 0.40375 0 0 Z " fill="#B5CCDB" transform="translate(20,46)"/>
<path d="M0 0 C2.6328125 0.21875 2.6328125 0.21875 5.6328125 3.21875 C-7.2371875 2.72375 -7.2371875 2.72375 -20.3671875 2.21875 C-20.3671875 1.88875 -20.3671875 1.55875 -20.3671875 1.21875 C-17.65897624 1.04986377 -14.95064653 0.88357399 -12.2421875 0.71875 C-11.48164062 0.67105469 -10.72109375 0.62335937 -9.9375 0.57421875 C-6.62508266 0.3743315 -3.31159457 0.21513839 0 0 Z " fill="#385F75" transform="translate(57.3671875,15.78125)"/>
<path d="M0 0 C0.77923828 0.00902344 1.55847656 0.01804687 2.36132812 0.02734375 C4.26185447 0.05066309 6.16222008 0.08652414 8.0625 0.125 C8.0625 0.455 8.0625 0.785 8.0625 1.125 C7.27488281 1.17398437 6.48726562 1.22296875 5.67578125 1.2734375 C-2.27888596 1.81943833 -10.076276 2.79978548 -17.9375 4.125 C-13.21372985 -0.59877015 -6.2564439 -0.1393895 0 0 Z " fill="#132432" transform="translate(45.9375,5.875)"/>
<path d="M0 0 C1.98 0.66 3.96 1.32 6 2 C5.67 4.97 5.34 7.94 5 11 C4.34 11 3.68 11 3 11 C2.51171875 9.01432292 2.0234375 7.02864583 1.53515625 5.04296875 C1.08989295 3.34316798 0.55566015 1.66698046 0 0 Z " fill="#91BCD1" transform="translate(35,81)"/>
<path d="M0 0 C0.99 0.66 1.98 1.32 3 2 C1.68 2 0.36 2 -1 2 C-1 2.66 -1 3.32 -1 4 C-6.75 3.25 -6.75 3.25 -9 1 C-5.64847025 -1.11022243 -3.76699068 -1.15907406 0 0 Z " fill="#5B889A" transform="translate(48,66)"/>
<path d="M0 0 C0.165 0.598125 0.33 1.19625 0.5 1.8125 C2.81276204 5.18527798 6.19891337 5.8331548 10 7 C10 7.66 10 8.32 10 9 C6.78333296 9.21931821 4.56637697 9.26828383 1.625 7.875 C0 6 0 6 -0.25 2.8125 C-0.1675 1.884375 -0.085 0.95625 0 0 Z " fill="#E5F3F9" transform="translate(18,50)"/>
<path d="M0 0 C0.33 0.66 0.66 1.32 1 2 C4.63 2 8.26 2 12 2 C12.33 2.99 12.66 3.98 13 5 C11.22925083 5.02705729 9.45838289 5.04642195 7.6875 5.0625 C6.70136719 5.07410156 5.71523438 5.08570313 4.69921875 5.09765625 C2 5 2 5 -1 4 C-0.67 2.68 -0.34 1.36 0 0 Z " fill="#88B5CC" transform="translate(37,46)"/>
<path d="M0 0 C0.99 0 1.98 0 3 0 C3 3.63 3 7.26 3 11 C2.01 10.34 1.02 9.68 0 9 C-0.29296875 6.8359375 -0.29296875 6.8359375 -0.1875 4.375 C-0.16042969 3.55773438 -0.13335938 2.74046875 -0.10546875 1.8984375 C-0.05326172 0.95871094 -0.05326172 0.95871094 0 0 Z " fill="#B5D3DF" transform="translate(27,35)"/>
<path d="M0 0 C3.875 0.875 3.875 0.875 5 2 C5.07179964 3.51928038 5.08392007 5.04167482 5.0625 6.5625 C5.05347656 7.38878906 5.04445313 8.21507812 5.03515625 9.06640625 C5.01775391 10.02353516 5.01775391 10.02353516 5 11 C5.66 11 6.32 11 7 11 C7 11.66 7 12.32 7 13 C5.68 13.33 4.36 13.66 3 14 C2.34 13.01 1.68 12.02 1 11 C1.66 10.34 2.32 9.68 3 9 C3.49329585 4.73527274 3.49329585 4.73527274 1.5 1.125 C1.005 0.75375 0.51 0.3825 0 0 Z " fill="#316779" transform="translate(31,24)"/>
<path d="M0 0 C2.31 0 4.62 0 7 0 C7.99 1.98 8.98 3.96 10 6 C7.36 6.33 4.72 6.66 2 7 C2.33 6.34 2.66 5.68 3 5 C3.66 5 4.32 5 5 5 C4.33131686 1.88667752 4.33131686 1.88667752 1.9375 0.8125 C1.298125 0.544375 0.65875 0.27625 0 0 Z " fill="#1A3446" transform="translate(15,39)"/>
<path d="M0 0 C0.66 0 1.32 0 2 0 C1.47557578 3.7758544 0.67345333 6.22372155 -2 9 C-2.99 9 -3.98 9 -5 9 C-3.7580393 5.56072421 -2.44259716 2.74792181 0 0 Z " fill="#C6DDE8" transform="translate(36,39)"/>
<path d="M0 0 C0.99 0 1.98 0 3 0 C2.34 1.98 1.68 3.96 1 6 C1.66 6 2.32 6 3 6 C3.33 5.01 3.66 4.02 4 3 C5.32 3.33 6.64 3.66 8 4 C7.67 4.66 7.34 5.32 7 6 C6.01 5.67 5.02 5.34 4 5 C4 5.66 4 6.32 4 7 C2.35 6.67 0.7 6.34 -1 6 C-0.67 4.02 -0.34 2.04 0 0 Z " fill="#2B6D7C" transform="translate(52,26)"/>
<path d="M0 0 C0.99 0 1.98 0 3 0 C2.67 2.31 2.34 4.62 2 7 C0.68 7.33 -0.64 7.66 -2 8 C-1.125 1.125 -1.125 1.125 0 0 Z " fill="#F3F4F2" transform="translate(56,82)"/>
<path d="M0 0 C0 2.64 0 5.28 0 8 C-0.33 8 -0.66 8 -1 8 C-1 5.69 -1 3.38 -1 1 C-1.845625 1.185625 -2.69125 1.37125 -3.5625 1.5625 C-7.2773282 2.03529632 -10.32974273 1.66064631 -14 1 C-14 0.67 -14 0.34 -14 0 C-12.41773035 -0.19627391 -10.83410729 -0.38165538 -9.25 -0.5625 C-8.36828125 -0.66691406 -7.4865625 -0.77132812 -6.578125 -0.87890625 C-4.11567549 -0.99456676 -2.33461936 -0.73638695 0 0 Z " fill="#4F667C" transform="translate(57,57)"/>
<path d="M0 0 C0.66 0.33 1.32 0.66 2 1 C1.67 1.99 1.34 2.98 1 4 C-1.97 4 -4.94 4 -8 4 C-8 3.01 -8 2.02 -8 1 C-7.05125 1.020625 -6.1025 1.04125 -5.125 1.0625 C-2.09333717 1.22551826 -2.09333717 1.22551826 0 0 Z " fill="#4C6D81" transform="translate(29,50)"/>
<path d="M0 0 C0.33 1.32 0.66 2.64 1 4 C0.34 4 -0.32 4 -1 4 C-1.33 3.34 -1.66 2.68 -2 2 C-2.99 2 -3.98 2 -5 2 C-5.33 2.66 -5.66 3.32 -6 4 C-6.66 4 -7.32 4 -8 4 C-7.625 2.0625 -7.625 2.0625 -7 0 C-4.3333581 -1.33332095 -2.83319697 -0.67102033 0 0 Z " fill="#41BFC6" transform="translate(61,28)"/>
<path d="M0 0 C-0.33 1.65 -0.66 3.3 -1 5 C-2.65 5 -4.3 5 -6 5 C-6 3.68 -6 2.36 -6 1 C-3 0 -3 0 0 0 Z " fill="#ECF1F5" transform="translate(55,69)"/>
<path d="M0 0 C0.33 0 0.66 0 1 0 C1.13277344 0.60328125 1.26554687 1.2065625 1.40234375 1.828125 C1.57894531 2.62734375 1.75554688 3.4265625 1.9375 4.25 C2.11152344 5.03890625 2.28554688 5.8278125 2.46484375 6.640625 C2.947556 8.76878703 3.46163178 10.88532842 4 13 C2.35 12.67 0.7 12.34 -1 12 C-0.34 11.67 0.32 11.34 1 11 C0.67 10.34 0.34 9.68 0 9 C-0.06950541 7.45976004 -0.08452357 5.91665012 -0.0625 4.375 C-0.05347656 3.55773437 -0.04445313 2.74046875 -0.03515625 1.8984375 C-0.02355469 1.27195312 -0.01195313 0.64546875 0 0 Z " fill="#27566B" transform="translate(17,26)"/>
<path d="M0 0 C0.33 0 0.66 0 1 0 C1.66 4.95 2.32 9.9 3 15 C2.34 15 1.68 15 1 15 C-1.32086397 9.675665 -0.91457003 5.56157448 0 0 Z " fill="#87AFC7" transform="translate(21,26)"/>
<path d="M0 0 C0 0.33 0 0.66 0 1 C-0.60328125 1.19335938 -1.2065625 1.38671875 -1.828125 1.5859375 C-2.62734375 1.84632812 -3.4265625 2.10671875 -4.25 2.375 C-5.03890625 2.63023438 -5.8278125 2.88546875 -6.640625 3.1484375 C-8.86627958 3.95173667 -10.90931672 4.89711662 -13 6 C-12.875 4.125 -12.875 4.125 -12 2 C-7.94298942 0.11301833 -4.43457902 -0.21117043 0 0 Z " fill="#455867" transform="translate(37,9)"/>
<path d="M0 0 C0.99 0 1.98 0 3 0 C3 0.66 3 1.32 3 2 C-0.3146667 4.02907167 -2.4315979 4.12742133 -6.25 3.625 C-7.14203125 3.51414062 -8.0340625 3.40328125 -8.953125 3.2890625 C-9.62859375 3.19367188 -10.3040625 3.09828125 -11 3 C-11 2.67 -11 2.34 -11 2 C-10.28972656 1.93941406 -9.57945313 1.87882812 -8.84765625 1.81640625 C-7.46900391 1.69072266 -7.46900391 1.69072266 -6.0625 1.5625 C-5.14597656 1.48128906 -4.22945312 1.40007812 -3.28515625 1.31640625 C-1.03840268 1.23955024 -1.03840268 1.23955024 0 0 Z " fill="#88ACBD" transform="translate(61,92)"/>
<path d="M0 0 C1.98 0.66 3.96 1.32 6 2 C6 2.99 6 3.98 6 5 C4.02 5 2.04 5 0 5 C-0.33 4.01 -0.66 3.02 -1 2 C-0.67 1.34 -0.34 0.68 0 0 Z " fill="#ECF5F4" transform="translate(40,71)"/>
<path d="M0 0 C0.33 0 0.66 0 1 0 C1.40178571 8.03571429 1.40178571 8.03571429 -2 12 C-1.85962479 10.18706911 -1.71255111 8.3746557 -1.5625 6.5625 C-1.48128906 5.55316406 -1.40007813 4.54382812 -1.31640625 3.50390625 C-1 1 -1 1 0 0 Z " fill="#E5F0F1" transform="translate(60,59)"/>
<path d="M0 0 C0.99 0.33 1.98 0.66 3 1 C3.92844389 5.33273814 3.92844389 8.66726186 3 13 C2.67 13 2.34 13 2 13 C1.93941406 12.39671875 1.87882812 11.7934375 1.81640625 11.171875 C1.69072266 9.97304688 1.69072266 9.97304688 1.5625 8.75 C1.48128906 7.96109375 1.40007812 7.1721875 1.31640625 6.359375 C1.02365007 4.17635361 0.57935581 2.1226818 0 0 Z " fill="#375875" transform="translate(64,19)"/>
<path d="M0 0 C0.99 0.33 1.98 0.66 3 1 C3 2.65 3 4.3 3 6 C1.35 6.66 -0.3 7.32 -2 8 C-1.47731534 5.23723823 -0.89130413 2.6739124 0 0 Z " fill="#527181" transform="translate(62,17)"/>
<path d="M0 0 C0.66 0.33 1.32 0.66 2 1 C2 2.98 2 4.96 2 7 C-0.31 7 -2.62 7 -5 7 C-4.360625 6.5875 -3.72125 6.175 -3.0625 5.75 C-0.79009069 3.82189513 -0.39803561 2.88575819 0 0 Z " fill="#D5E7ED" transform="translate(36,85)"/>
<path d="M0 0 C1.32 0 2.64 0 4 0 C4 2.31 4 4.62 4 7 C2 5.1875 2 5.1875 0 3 C0 2.01 0 1.02 0 0 Z " fill="#ECF4F8" transform="translate(27,62)"/>
<path d="M0 0 C-3.26545761 1.88391785 -6.28111761 2.49287967 -10 3 C-10 2.01 -10 1.02 -10 0 C-6.42355152 -1.2380014 -3.66305234 -0.74926071 0 0 Z " fill="#4B758B" transform="translate(60,50)"/>
<path d="M0 0 C1.32 0 2.64 0 4 0 C4 0.99 4 1.98 4 3 C1.36 3.33 -1.28 3.66 -4 4 C-2.68 3.34 -1.36 2.68 0 2 C0 1.34 0 0.68 0 0 Z " fill="#5A6E71" transform="translate(64,92)"/>
<path d="M0 0 C0.99 1.32 1.98 2.64 3 4 C2.01 4 1.02 4 0 4 C0 6.31 0 8.62 0 11 C-0.33 11 -0.66 11 -1 11 C-1 8.69 -1 6.38 -1 4 C-1.99 3.67 -2.98 3.34 -4 3 C-2.68 2.01 -1.36 1.02 0 0 Z " fill="#5D798C" transform="translate(34,55)"/>
<path d="M0 0 C0.99 0 1.98 0 3 0 C3 1.98 3 3.96 3 6 C2.01 6 1.02 6 0 6 C0 4.02 0 2.04 0 0 Z " fill="#A8CBD8" transform="translate(50,86)"/>
<path d="M0 0 C0.33 1.32 0.66 2.64 1 4 C1.66 4.33 2.32 4.66 3 5 C1.625 7 1.625 7 0 9 C-0.66 9 -1.32 9 -2 9 C-1.34 6.03 -0.68 3.06 0 0 Z " fill="#81AFC8" transform="translate(57,69)"/>
<path d="M0 0 C2 3 2 3 2 6 C-0.97 5.67 -3.94 5.34 -7 5 C-7 4.67 -7 4.34 -7 4 C-4.69 4 -2.38 4 0 4 C0 2.68 0 1.36 0 0 Z " fill="#436B80" transform="translate(40,88)"/>
<path d="M0 0 C0.66 0.66 1.32 1.32 2 2 C1.34 3.32 0.68 4.64 0 6 C0.99 6.33 1.98 6.66 3 7 C1.68 7 0.36 7 -1 7 C-1 6.34 -1 5.68 -1 5 C-1.66 4.67 -2.32 4.34 -3 4 C-2.01 2.68 -1.02 1.36 0 0 Z " fill="#3F6783" transform="translate(36,44)"/>
<path d="M0 0 C1.2065625 0.0309375 1.2065625 0.0309375 2.4375 0.0625 C1.16884318 2.59981364 -0.05959121 2.84896846 -2.5625 4.0625 C-3.2225 4.7225 -3.8825 5.3825 -4.5625 6.0625 C-3.48963568 0.08511307 -3.48963568 0.08511307 0 0 Z " fill="#355765" transform="translate(27.5625,17.9375)"/>
<path d="M0 0 C3.3 0.33 6.6 0.66 10 1 C10.33 1.99 10.66 2.98 11 4 C7.37 3.01 3.74 2.02 0 1 C0 0.67 0 0.34 0 0 Z " fill="#566B7A" transform="translate(53,9)"/>
</svg>
