<?xml version="1.0" encoding="UTF-8"?>
<!DOCTYPE svg PUBLIC "-//W3C//DTD SVG 1.1//EN" "http://www.w3.org/Graphics/SVG/1.1/DTD/svg11.dtd">
<svg xmlns="http://www.w3.org/2000/svg" version="1.1" width="300px" height="96px" style="shape-rendering:geometricPrecision; text-rendering:geometricPrecision; image-rendering:optimizeQuality; fill-rule:evenodd; clip-rule:evenodd" xmlns:xlink="http://www.w3.org/1999/xlink">
<g><path style="opacity:1" fill="#fdfdfd" d="M -0.5,-0.5 C 99.5,-0.5 199.5,-0.5 299.5,-0.5C 299.5,31.5 299.5,63.5 299.5,95.5C 199.5,95.5 99.5,95.5 -0.5,95.5C -0.5,63.5 -0.5,31.5 -0.5,-0.5 Z"/></g>
<g><path style="opacity:1" fill="#d78f3b" d="M 55.5,6.5 C 48.017,6.09123 40.6836,6.7579 33.5,8.5C 40.5626,4.34602 47.896,3.67935 55.5,6.5 Z"/></g>
<g><path style="opacity:1" fill="#df8a24" d="M 55.5,6.5 C 66.7349,9.40136 74.0682,16.4014 77.5,27.5C 74.7531,27.8134 72.0865,27.48 69.5,26.5C 66.0646,18.5627 60.2313,14.5627 52,14.5C 51.6667,23.8333 51.3333,33.1667 51,42.5C 48.876,43.2272 46.7094,43.8938 44.5,44.5C 41.8333,46.8333 41.8333,49.1667 44.5,51.5C 46.7094,52.1062 48.876,52.7728 51,53.5C 51.4997,61.4931 51.6664,69.4931 51.5,77.5C 48.8333,77.5 46.1667,77.5 43.5,77.5C 43.8303,70.4684 43.497,63.4684 42.5,56.5C 37.6042,52.8067 36.4375,48.14 39,42.5C 40.0195,41.3128 41.1861,40.3128 42.5,39.5C 43.6651,31.1866 43.8317,22.8533 43,14.5C 39.0466,13.0409 35.5466,13.8742 32.5,17C 29.1123,19.7859 26.4456,23.1193 24.5,27C 21.8333,27.6667 19.1667,27.6667 16.5,27C 19.3283,18.1429 24.995,11.9763 33.5,8.5C 40.6836,6.7579 48.017,6.09123 55.5,6.5 Z"/></g>
<g><path style="opacity:1" fill="#e2bd8d" d="M 109.5,29.5 C 113.298,28.5166 117.298,28.1832 121.5,28.5C 121.5,30.1667 121.5,31.8333 121.5,33.5C 118.833,33.5 116.167,33.5 113.5,33.5C 115.607,32.5318 117.941,32.1984 120.5,32.5C 120.5,31.5 120.5,30.5 120.5,29.5C 116.833,29.5 113.167,29.5 109.5,29.5 Z"/></g>
<g><path style="opacity:1" fill="#1a7f70" d="M 199.5,28.5 C 202.518,28.3354 205.518,28.502 208.5,29C 210.861,29.1968 212.528,30.3635 213.5,32.5C 212.081,34.9146 210.415,35.0813 208.5,33C 198.431,31.7317 194.931,35.8984 198,45.5C 202.249,49.4677 206.415,49.4677 210.5,45.5C 208.604,44.5344 206.604,44.2011 204.5,44.5C 204.5,43.1667 204.5,41.8333 204.5,40.5C 208.167,40.5 211.833,40.5 215.5,40.5C 215.262,47.9049 211.429,51.9049 204,52.5C 194.599,50.7238 190.933,45.0572 193,35.5C 194.694,32.6424 196.861,30.309 199.5,28.5 Z"/></g>
<g><path style="opacity:1" fill="#e2b479" d="M 151.5,29.5 C 152.568,28.5655 153.901,28.2322 155.5,28.5C 155.5,31.5 155.5,34.5 155.5,37.5C 154.527,35.0521 154.194,32.3854 154.5,29.5C 153.5,29.5 152.5,29.5 151.5,29.5 Z"/></g>
<g><path style="opacity:1" fill="#0b7c6f" d="M 244.5,29.5 C 244.5,36.8333 244.5,44.1667 244.5,51.5C 242.901,51.7678 241.568,51.4345 240.5,50.5C 241.491,43.6866 241.825,36.6866 241.5,29.5C 242.5,29.5 243.5,29.5 244.5,29.5 Z"/></g>
<g><path style="opacity:1" fill="#d78c30" d="M 171.5,28.5 C 172.873,28.3433 174.207,28.51 175.5,29C 177.291,31.414 178.957,33.914 180.5,36.5C 182.086,34.3295 183.42,31.9962 184.5,29.5C 185.833,28.1667 187.167,28.1667 188.5,29.5C 186.667,33.1667 184.833,36.8333 183,40.5C 182.501,44.1516 182.335,47.8183 182.5,51.5C 181.167,51.5 179.833,51.5 178.5,51.5C 178.665,48.1501 178.498,44.8168 178,41.5C 175.807,37.1136 173.64,32.7802 171.5,28.5 Z"/></g>
<g><path style="opacity:1" fill="#f0d5b6" d="M 93.5,29.5 C 93.5,30.5 93.5,31.5 93.5,32.5C 94.8333,32.5 96.1667,32.5 97.5,32.5C 97.5,38.8333 97.5,45.1667 97.5,51.5C 96.5104,45.69 96.1771,39.69 96.5,33.5C 95.1667,33.5 93.8333,33.5 92.5,33.5C 92.2322,31.901 92.5655,30.5676 93.5,29.5 Z"/></g>
<g><path style="opacity:1" fill="#df881e" d="M 151.5,29.5 C 152.5,29.5 153.5,29.5 154.5,29.5C 154.194,32.3854 154.527,35.0521 155.5,37.5C 158.167,37.5 160.833,37.5 163.5,37.5C 164.165,35.3021 164.832,32.9688 165.5,30.5C 166.833,36.8333 166.833,43.1667 165.5,49.5C 164.832,46.6944 164.166,44.0277 163.5,41.5C 160.833,41.5 158.167,41.5 155.5,41.5C 155.5,44.8333 155.5,48.1667 155.5,51.5C 154.167,51.5 152.833,51.5 151.5,51.5C 151.5,44.1667 151.5,36.8333 151.5,29.5 Z"/></g>
<g><path style="opacity:1" fill="#76aea5" d="M 244.5,29.5 C 243.5,29.5 242.5,29.5 241.5,29.5C 241.825,36.6866 241.491,43.6866 240.5,50.5C 240.5,43.1667 240.5,35.8333 240.5,28.5C 242.099,28.2322 243.432,28.5655 244.5,29.5 Z"/></g>
<g><path style="opacity:1" fill="#db8c29" d="M 93.5,29.5 C 97.5,29.5 101.5,29.5 105.5,29.5C 105.5,30.5 105.5,31.5 105.5,32.5C 104.167,32.5 102.833,32.5 101.5,32.5C 101.5,38.8333 101.5,45.1667 101.5,51.5C 100.167,51.5 98.8333,51.5 97.5,51.5C 97.5,45.1667 97.5,38.8333 97.5,32.5C 96.1667,32.5 94.8333,32.5 93.5,32.5C 93.5,31.5 93.5,30.5 93.5,29.5 Z"/></g>
<g><path style="opacity:1" fill="#da8f36" d="M 109.5,29.5 C 113.167,29.5 116.833,29.5 120.5,29.5C 120.5,30.5 120.5,31.5 120.5,32.5C 117.941,32.1984 115.607,32.5318 113.5,33.5C 112.566,34.5676 112.232,35.901 112.5,37.5C 115.5,37.5 118.5,37.5 121.5,37.5C 121.5,38.8333 121.5,40.1667 121.5,41.5C 118.5,41.5 115.5,41.5 112.5,41.5C 112.5,43.5 112.5,45.5 112.5,47.5C 115.5,47.5 118.5,47.5 121.5,47.5C 121.5,48.8333 121.5,50.1667 121.5,51.5C 117.167,51.5 112.833,51.5 108.5,51.5C 108.175,43.9809 108.508,36.6476 109.5,29.5 Z"/></g>
<g><path style="opacity:1" fill="#d08c38" d="M 163.5,41.5 C 164.166,44.0277 164.832,46.6944 165.5,49.5C 166.833,43.1667 166.833,36.8333 165.5,30.5C 164.832,32.9688 164.165,35.3021 163.5,37.5C 163.5,34.5 163.5,31.5 163.5,28.5C 164.833,28.5 166.167,28.5 167.5,28.5C 167.5,36.1667 167.5,43.8333 167.5,51.5C 166.167,51.5 164.833,51.5 163.5,51.5C 163.5,48.1667 163.5,44.8333 163.5,41.5 Z"/></g>
<g><path style="opacity:1" fill="#1d8373" d="M 273.5,28.5 C 277.5,28.5 281.5,28.5 285.5,28.5C 285.5,29.8333 285.5,31.1667 285.5,32.5C 282.833,32.5 280.167,32.5 277.5,32.5C 277.5,34.1667 277.5,35.8333 277.5,37.5C 280.167,37.5 282.833,37.5 285.5,37.5C 285.5,38.8333 285.5,40.1667 285.5,41.5C 282.833,41.5 280.167,41.5 277.5,41.5C 277.5,43.5 277.5,45.5 277.5,47.5C 280.167,47.5 282.833,47.5 285.5,47.5C 285.5,48.8333 285.5,50.1667 285.5,51.5C 281.5,51.5 277.5,51.5 273.5,51.5C 273.5,43.8333 273.5,36.1667 273.5,28.5 Z"/></g>
<g><path style="opacity:1" fill="#1b8071" d="M 250.5,28.5 C 264.711,26.8689 270.211,32.8689 267,46.5C 266.535,47.9308 265.701,49.0975 264.5,50C 259.964,51.3789 255.297,51.8789 250.5,51.5C 250.5,43.8333 250.5,36.1667 250.5,28.5 Z"/></g>
<g><path style="opacity:1" fill="#f5fafa" d="M 254.5,32.5 C 260.53,31.8679 263.863,34.5346 264.5,40.5C 263.965,46.6898 260.632,49.0232 254.5,47.5C 254.5,42.5 254.5,37.5 254.5,32.5 Z"/></g>
<g><path style="opacity:1" fill="#d88b30" d="M 132.5,28.5 C 137.833,27.7407 142.499,29.074 146.5,32.5C 145.855,33.646 145.022,34.646 144,35.5C 139.333,31.5 134.667,31.5 130,35.5C 127.89,39.6276 128.39,43.4609 131.5,47C 135.836,49.222 139.836,48.722 143.5,45.5C 146.619,46.6936 146.952,48.1936 144.5,50C 137.26,54.2057 131.093,53.0391 126,46.5C 122.854,38.4771 125.02,32.4771 132.5,28.5 Z"/></g>
<g><path style="opacity:1" fill="#177e6f" d="M 220.5,28.5 C 221.833,28.5 223.167,28.5 224.5,28.5C 224.334,34.5092 224.501,40.5092 225,46.5C 226.916,49.033 228.916,49.033 231,46.5C 231.499,40.5092 231.666,34.5092 231.5,28.5C 232.833,28.5 234.167,28.5 235.5,28.5C 235.666,35.175 235.5,41.8417 235,48.5C 230.333,53.8333 225.667,53.8333 221,48.5C 220.5,41.8417 220.334,35.175 220.5,28.5 Z"/></g>
<g><path style="opacity:1" fill="#8c929f" d="M 245.5,63.5 C 246.601,62.4017 247.934,62.235 249.5,63C 250.517,64.0495 250.684,65.2161 250,66.5C 249.411,64.1367 247.911,63.1367 245.5,63.5 Z"/></g>
<g><path style="opacity:1" fill="#9599a2" d="M 193.5,59.5 C 197.335,60.0035 197.335,61.0035 193.5,62.5C 197.311,63.7376 197.311,64.4042 193.5,64.5C 192.268,67.4585 192.268,65.7918 193.5,59.5 Z"/></g>
<g><path style="opacity:1" fill="#e4e5e8" d="M 202.5,63.5 C 203.833,64.8333 203.833,66.1667 202.5,67.5C 200.654,67.7778 199.32,67.1112 198.5,65.5C 199.32,63.8888 200.654,63.2222 202.5,63.5 Z"/></g>
<g><path style="opacity:1" fill="#d4d7dc" d="M 217.5,65.5 C 216.883,65.3893 216.383,65.056 216,64.5C 214.56,68.7321 212.227,69.3988 209,66.5C 208.692,67.3081 208.192,67.9747 207.5,68.5C 206.167,65.8333 206.167,63.1667 207.5,60.5C 208.281,61.7287 208.781,63.062 209,64.5C 209.5,64 210,63.5 210.5,63C 212.657,62.9219 214.657,62.7552 216.5,62.5C 217.386,63.325 217.719,64.325 217.5,65.5 Z"/></g>
<g><path style="opacity:1" fill="#c2c6cc" d="M 233.5,61.5 C 236.428,63.1239 237.095,65.4572 235.5,68.5C 234.167,61.8333 232.833,61.8333 231.5,68.5C 230.534,66.604 230.201,64.604 230.5,62.5C 231.791,62.7373 232.791,62.404 233.5,61.5 Z"/></g>
<g><path style="opacity:1" fill="#a0a3b0" d="M 251.5,62.5 C 252.315,63.4293 253.148,64.4293 254,65.5C 254.419,64.3279 255.085,63.3279 256,62.5C 256.265,64.1626 255.765,65.6626 254.5,67C 252.227,66.6834 251.227,65.1834 251.5,62.5 Z"/></g>
<g><path style="opacity:1" fill="#9a9eab" d="M 265.5,60.5 C 266.478,60.811 267.145,61.4777 267.5,62.5C 266.811,64.444 266.311,66.444 266,68.5C 265.503,65.854 265.336,63.1873 265.5,60.5 Z"/></g>
<g><path style="opacity:1" fill="#b0b3bd" d="M 272.5,61.5 C 274.582,61.6243 276.082,62.6243 277,64.5C 277.308,63.6919 277.808,63.0253 278.5,62.5C 279.833,64.5 279.833,66.5 278.5,68.5C 277.808,67.9747 277.308,67.3081 277,66.5C 276.667,66.8333 276.333,67.1667 276,67.5C 275.51,66.2068 275.343,64.8734 275.5,63.5C 273.089,63.1367 271.589,64.1367 271,66.5C 270.387,64.5048 270.887,62.8381 272.5,61.5 Z"/></g>
<g><path style="opacity:1" fill="#9ca0ac" d="M 217.5,65.5 C 218.712,64.7701 219.712,63.7701 220.5,62.5C 221.251,63.376 221.751,64.376 222,65.5C 224.033,64.9836 224.033,65.6503 222,67.5C 220.684,64.972 219.517,64.972 218.5,67.5C 217.702,67.0431 217.369,66.3764 217.5,65.5 Z"/></g>
<g><path style="opacity:1" fill="#9397a0" d="M 202.5,63.5 C 200.654,63.2222 199.32,63.8888 198.5,65.5C 199.32,67.1112 200.654,67.7778 202.5,67.5C 198.014,69.1769 196.681,67.6769 198.5,63C 200.066,62.235 201.399,62.4017 202.5,63.5 Z"/></g>
<g><path style="opacity:1" fill="#b5b6c0" d="M 239.5,61.5 C 240.496,61.4142 241.329,61.7476 242,62.5C 243.788,69.5567 243.288,69.89 240.5,63.5C 238.931,64.714 238.098,66.3807 238,68.5C 237.185,65.8018 237.685,63.4685 239.5,61.5 Z"/></g>
<g><path style="opacity:1" fill="#9b9ea9" d="M 258.5,63.5 C 259.919,62.5489 261.585,62.2155 263.5,62.5C 263.5,64.5 263.5,66.5 263.5,68.5C 258.491,69.4998 256.824,67.8332 258.5,63.5 Z"/></g>
<g><path style="opacity:1" fill="#fbfbfc" d="M 258.5,63.5 C 259.833,63.5 261.167,63.5 262.5,63.5C 262.778,65.3464 262.111,66.6798 260.5,67.5C 258.889,66.6798 258.222,65.3464 258.5,63.5 Z"/></g>
<g><path style="opacity:1" fill="#0f8171" d="M 15.5,35.5 C 17.8333,35.5 20.1667,35.5 22.5,35.5C 22.3335,44.8393 22.5002,54.1726 23,63.5C 28.4005,79.9527 39.5672,86.1194 56.5,82C 68.7829,75.5996 73.7829,65.4329 71.5,51.5C 67.5,51.5 63.5,51.5 59.5,51.5C 59.5,50.5 59.5,49.5 59.5,48.5C 55.2174,47.9894 51.2174,48.6561 47.5,50.5C 44.8333,48.8333 44.8333,47.1667 47.5,45.5C 51.2174,47.3439 55.2174,48.0106 59.5,47.5C 59.5,46.5 59.5,45.5 59.5,44.5C 66.1667,44.5 72.8333,44.5 79.5,44.5C 79.9929,53.6355 79.1596,62.6355 77,71.5C 70.8737,83.9015 60.8737,90.5682 47,91.5C 30.0702,89.8946 19.7369,80.8946 16,64.5C 15.5002,54.8391 15.3335,45.1724 15.5,35.5 Z"/></g>
</svg>
