<?xml version="1.0" encoding="UTF-8"?>
<svg version="1.1" xmlns="http://www.w3.org/2000/svg" width="75" height="93">
<path d="M0 0 C6.71917702 4.54224739 11.47903725 10.20529909 14 18 C13.67 18.66 13.34 19.32 13 20 C7.92020573 20.78824394 7.92020573 20.78824394 5 20 C3.13125222 17.89765875 1.8447347 15.69769366 0.4375 13.265625 C-1.99895479 9.42556039 -5.02913512 7.69246604 -9.3125 6.1875 C-9.869375 6.125625 -10.42625 6.06375 -11 6 C-12.83219646 7.83219646 -12.23901328 10.75713741 -12.31640625 13.22265625 C-12.37924805 15.11274414 -12.37924805 15.11274414 -12.44335938 17.04101562 C-12.48317596 18.38150736 -12.52288814 19.7220022 -12.5625 21.0625 C-12.60568042 22.40691523 -12.64929456 23.7513166 -12.69335938 25.09570312 C-12.79985358 28.3970234 -12.9018646 31.69842236 -13 35 C-15.31 35.66 -17.62 36.32 -20 37 C-20 38.65 -20 40.3 -20 42 C-20 40.27917076 -19.4277972 38.65771414 -19 37 C-18.34 37.144375 -17.68 37.28875 -17 37.4375 C-13.34400449 38.12299916 -9.69377805 38.56175515 -6 39 C-5.67 37.68 -5.34 36.36 -5 35 C1.6 35 8.2 35 15 35 C15.08162514 38.47964953 15.14080146 41.95734697 15.1875 45.4375 C15.21263672 46.41138672 15.23777344 47.38527344 15.26367188 48.38867188 C15.36113585 58.10258115 13.31979519 65.37675244 7.09375 72.921875 C0.54077333 79.42594885 -7.54003637 82.99923769 -16.6875 83.375 C-26.9800457 83.13327149 -34.42347159 79.6922268 -41.83203125 72.578125 C-47.7318771 65.5620921 -50.13859668 57.49127008 -50.09765625 48.484375 C-50.09443359 47.23398437 -50.09121094 45.98359375 -50.08789062 44.6953125 C-50.07951172 43.39335938 -50.07113281 42.09140625 -50.0625 40.75 C-50.05798828 39.43257812 -50.05347656 38.11515625 -50.04882812 36.7578125 C-50.03704316 33.50516259 -50.02059011 30.25260416 -50 27 C-47.03 27 -44.06 27 -41 27 C-40.98598145 28.3003418 -40.98598145 28.3003418 -40.97167969 29.62695312 C-40.92737423 32.87775741 -40.86563047 36.12765627 -40.79248047 39.37792969 C-40.76444929 40.77819961 -40.74314684 42.17862251 -40.72900391 43.57910156 C-40.63189967 52.65511045 -40.35552993 59.72151254 -34.359375 66.98828125 C-29.14950771 71.27504098 -24.3054236 73.63940833 -17.5625 74.375 C-10.06299937 73.58557888 -4.29571625 71.41887244 1 66 C6.03927187 59.56093039 6.22895162 51.88295519 7 44 C3.04 44 -0.92 44 -5 44 C-5.495 42.02 -5.495 42.02 -6 40 C-7.299375 40.12375 -8.59875 40.2475 -9.9375 40.375 C-10.66839844 40.44460937 -11.39929687 40.51421875 -12.15234375 40.5859375 C-13.06693359 40.79089844 -13.06693359 40.79089844 -14 41 C-14.495 41.99 -14.495 41.99 -15 43 C-14.01 43.495 -14.01 43.495 -13 44 C-13 52.25 -13 60.5 -13 69 C-16.465 69.495 -16.465 69.495 -20 70 C-21.56509297 68.43490703 -21.12751906 66.87434226 -21.140625 64.703125 C-21.16962891 63.38828125 -21.16962891 63.38828125 -21.19921875 62.046875 C-21.23278532 60.19813151 -21.25127976 58.34904633 -21.25390625 56.5 C-21.3678527 50.79680186 -21.3678527 50.79680186 -24.5078125 46.140625 C-25.74144531 45.08101562 -25.74144531 45.08101562 -27 44 C-27.6640625 41.71875 -27.6640625 41.71875 -27.625 39.5 C-27.63789063 38.7678125 -27.65078125 38.035625 -27.6640625 37.28125 C-27 35 -27 35 -24.48046875 32.95703125 C-20.65420127 28.39563836 -21.45918349 23.93756338 -21.6875 18.1875 C-21.71005859 17.11306641 -21.73261719 16.03863281 -21.75585938 14.93164062 C-21.81464402 12.2863315 -21.89676043 9.64388587 -22 7 C-24.83442774 5.68894728 -24.83442774 5.68894728 -26.8671875 6.78515625 C-32.6567061 10.46837139 -36.17958796 14.26938194 -40 20 C-41.9453125 20.29296875 -41.9453125 20.29296875 -44.125 20.1875 C-45.40375 20.125625 -46.6825 20.06375 -48 20 C-47.63085211 12.61704218 -42.92973861 7.61060779 -37.75 2.75 C-26.76269226 -6.03025029 -12.27114197 -6.60179978 0 0 Z " fill="#248D80" transform="translate(53,7)"/>
<path d="M0 0 C6.71917702 4.54224739 11.47903725 10.20529909 14 18 C13.67 18.66 13.34 19.32 13 20 C7.92020573 20.78824394 7.92020573 20.78824394 5 20 C3.13125222 17.89765875 1.8447347 15.69769366 0.4375 13.265625 C-1.99895479 9.42556039 -5.02913512 7.69246604 -9.3125 6.1875 C-9.869375 6.125625 -10.42625 6.06375 -11 6 C-12.83219646 7.83219646 -12.23901328 10.75713741 -12.31640625 13.22265625 C-12.37924805 15.11274414 -12.37924805 15.11274414 -12.44335938 17.04101562 C-12.48317596 18.38150736 -12.52288814 19.7220022 -12.5625 21.0625 C-12.60568042 22.40691523 -12.64929456 23.7513166 -12.69335938 25.09570312 C-12.79985358 28.3970234 -12.9018646 31.69842236 -13 35 C-15.31 35.66 -17.62 36.32 -20 37 C-20 38.65 -20 40.3 -20 42 C-19.21625 42.144375 -18.4325 42.28875 -17.625 42.4375 C-15 43 -15 43 -13 44 C-13 52.25 -13 60.5 -13 69 C-16.465 69.495 -16.465 69.495 -20 70 C-21.56509297 68.43490703 -21.12751906 66.87434226 -21.140625 64.703125 C-21.16962891 63.38828125 -21.16962891 63.38828125 -21.19921875 62.046875 C-21.23278532 60.19813151 -21.25127976 58.34904633 -21.25390625 56.5 C-21.3678527 50.79680186 -21.3678527 50.79680186 -24.5078125 46.140625 C-25.74144531 45.08101562 -25.74144531 45.08101562 -27 44 C-27.6640625 41.71875 -27.6640625 41.71875 -27.625 39.5 C-27.63789063 38.7678125 -27.65078125 38.035625 -27.6640625 37.28125 C-27 35 -27 35 -24.48046875 32.95703125 C-20.65420127 28.39563836 -21.45918349 23.93756338 -21.6875 18.1875 C-21.71005859 17.11306641 -21.73261719 16.03863281 -21.75585938 14.93164062 C-21.81464402 12.2863315 -21.89676043 9.64388587 -22 7 C-24.83442774 5.68894728 -24.83442774 5.68894728 -26.8671875 6.78515625 C-32.6567061 10.46837139 -36.17958796 14.26938194 -40 20 C-41.9453125 20.29296875 -41.9453125 20.29296875 -44.125 20.1875 C-45.40375 20.125625 -46.6825 20.06375 -48 20 C-47.63085211 12.61704218 -42.92973861 7.61060779 -37.75 2.75 C-26.76269226 -6.03025029 -12.27114197 -6.60179978 0 0 Z " fill="#DE8F2A" transform="translate(53,7)"/>
<path d="M0 0 C2.97864057 -0.27265622 4.49459594 -0.36820855 6.95703125 1.42578125 C7.56933594 2.04839844 8.18164062 2.67101562 8.8125 3.3125 C16.85917305 10.68737289 24.335512 10.40441176 35 10 C34.01 11.32 33.02 12.64 32 14 C32.495 14.99 32.495 14.99 33 16 C27.29479085 18.85260457 18.0571017 18.81050573 11.96484375 17.1953125 C6.45783413 14.59076081 1.73964806 10.82609016 -2 6 C-2.33 5.01 -2.66 4.02 -3 3 C-2.01 3 -1.02 3 0 3 C0 2.01 0 1.02 0 0 Z " fill="#208B7D" transform="translate(11,71)"/>
<path d="M0 0 C1.8046875 1.63671875 1.8046875 1.63671875 3 3 C0.69 2.67 -1.62 2.34 -4 2 C-4 1.34 -4 0.68 -4 0 C-6.31 0 -8.62 0 -11 0 C-11 -0.66 -11 -1.32 -11 -2 C-13.41700987 -1.85870713 -15.83350429 -1.71213513 -18.25 -1.5625 C-19.27287109 -1.50352539 -19.27287109 -1.50352539 -20.31640625 -1.44335938 C-23.64448041 -1.23333528 -26.80255402 -0.98065998 -30 0 C-30 0.66 -30 1.32 -30 2 C-30.66 2 -31.32 2 -32 2 C-32 2.66 -32 3.32 -32 4 C-31.34 4.33 -30.68 4.66 -30 5 C-29.67 4.67 -29.34 4.34 -29 4 C-26.66702567 3.95907063 -24.33294775 3.95758277 -22 4 C-22 4.99 -22 5.98 -22 7 C-22.99 6.67 -23.98 6.34 -25 6 C-31.85029098 8.88056169 -35.97636444 13.96454666 -40 20 C-41.9453125 20.29296875 -41.9453125 20.29296875 -44.125 20.1875 C-45.40375 20.125625 -46.6825 20.06375 -48 20 C-47.63085211 12.61704218 -42.92973861 7.61060779 -37.75 2.75 C-26.68572188 -6.09175937 -12.4049847 -6.46183001 0 0 Z " fill="#DB871E" transform="translate(53,7)"/>
<path d="M0 0 C1.65 0 3.3 0 5 0 C5.33 11.22 5.66 22.44 6 34 C4.515 34.495 4.515 34.495 3 35 C2.505 33.515 2.505 33.515 2 32 C1.34 32 0.68 32 0 32 C0 21.44 0 10.88 0 0 Z " fill="#028171" transform="translate(5,35)"/>
<path d="M0 0 C2.31 0 4.62 0 7 0 C7 7.59 7 15.18 7 23 C5.02 23 3.04 23 1 23 C0.67 15.41 0.34 7.82 0 0 Z " fill="#DF861A" transform="translate(32,52)"/>
<path d="M0 0 C0 0.66 0 1.32 0 2 C-0.66 2 -1.32 2 -2 2 C-2 11.57 -2 21.14 -2 31 C-2.66 30.67 -3.32 30.34 -4 30 C-4 29.01 -4 28.02 -4 27 C-4.99 27.33 -5.98 27.66 -7 28 C-7.08694042 23.89596637 -7.14037149 19.79216871 -7.1875 15.6875 C-7.21263672 14.52025391 -7.23777344 13.35300781 -7.26367188 12.15039062 C-7.27817383 10.47299805 -7.27817383 10.47299805 -7.29296875 8.76171875 C-7.3086792 7.73006592 -7.32438965 6.69841309 -7.34057617 5.63549805 C-7 3 -7 3 -5.73168945 1.13989258 C-4 0 -4 0 0 0 Z " fill="#E28516" transform="translate(40,10)"/>
<path d="M0 0 C5.61534853 3.91768502 8.69513317 8.52114547 11 15 C10.67 15.66 10.34 16.32 10 17 C4.92691517 17.78720282 4.92691517 17.78720282 2 17 C0.05873883 14.90501906 -1.25511738 12.74112149 -2.6796875 10.26953125 C-4.13593537 7.76633594 -5.8349053 5.91527608 -8 4 C-6.35 3.67 -4.7 3.34 -3 3 C-3 4.32 -3 5.64 -3 7 C-1.68 6.34 -0.36 5.68 1 5 C0.67 3.35 0.34 1.7 0 0 Z " fill="#E09436" transform="translate(56,10)"/>
<path d="M0 0 C6.6 0 13.2 0 20 0 C20 0.99 20 1.98 20 3 C13.73 3 7.46 3 1 3 C1 4.32 1 5.64 1 7 C4.63 7 8.26 7 12 7 C12 7.33 12 7.66 12 8 C7.71 8 3.42 8 -1 8 C-1 7.01 -1 6.02 -1 5 C-5.37934119 5.51958285 -9.68803391 6.05675742 -14 7 C-14.33 5.68 -14.66 4.36 -15 3 C-13.34385343 2.61781233 -11.67542976 2.28604898 -10 2 C-9.67 2.33 -9.34 2.66 -9 3 C-7.65252916 3.23075082 -6.29622435 3.41153063 -4.9375 3.5625 C-3.638125 3.706875 -2.33875 3.85125 -1 4 C-0.67 2.68 -0.34 1.36 0 0 Z " fill="#3B9689" transform="translate(48,42)"/>
<path d="M0 0 C3.13837611 -0.3077917 4.59343628 -0.27813784 7.23828125 1.53125 C7.92277344 2.1809375 8.60726563 2.830625 9.3125 3.5 C10.00988281 4.1496875 10.70726562 4.799375 11.42578125 5.46875 C11.94527344 5.9740625 12.46476562 6.479375 13 7 C12.38125 7.144375 11.7625 7.28875 11.125 7.4375 C8.96741678 7.93152225 8.96741678 7.93152225 7 9 C7 9.99 7 10.98 7 12 C8.32 12.66 9.64 13.32 11 14 C6.51459717 14 6.0340144 13.60872786 2.875 10.75 C2.19179687 10.14671875 1.50859375 9.5434375 0.8046875 8.921875 C-0.97191106 7.0299129 -1.98222048 5.37132136 -3 3 C-2.01 3 -1.02 3 0 3 C0 2.01 0 1.02 0 0 Z " fill="#3A958A" transform="translate(11,71)"/>
<path d="M0 0 C0.53625 0.226875 1.0725 0.45375 1.625 0.6875 C0.305 1.6775 -1.015 2.6675 -2.375 3.6875 C-2.045 5.6675 -1.715 7.6475 -1.375 9.6875 C-8.17622845 12.82652852 -13.94121057 13.02202052 -21.375 12.6875 C-21.375 12.0275 -21.375 11.3675 -21.375 10.6875 C-15.435 10.1925 -15.435 10.1925 -9.375 9.6875 C-9.705 9.0275 -10.035 8.3675 -10.375 7.6875 C-9.055 6.6975 -7.735 5.7075 -6.375 4.6875 C-7.035 4.0275 -7.695 3.3675 -8.375 2.6875 C-2.95961538 -0.38942308 -2.95961538 -0.38942308 0 0 Z " fill="#2C9385" transform="translate(51.375,77.3125)"/>
<path d="M0 0 C1.8046875 1.63671875 1.8046875 1.63671875 3 3 C0.69 2.67 -1.62 2.34 -4 2 C-4 1.34 -4 0.68 -4 0 C-6.31 0 -8.62 0 -11 0 C-11 -0.66 -11 -1.32 -11 -2 C-13.41700987 -1.85870713 -15.83350429 -1.71213513 -18.25 -1.5625 C-19.27287109 -1.50352539 -19.27287109 -1.50352539 -20.31640625 -1.44335938 C-23.64448041 -1.23333528 -26.80255402 -0.98065998 -30 0 C-30 0.66 -30 1.32 -30 2 C-32.31 2.33 -34.62 2.66 -37 3 C-27.76671598 -7.26247173 -11.25597594 -5.86330454 0 0 Z " fill="#DCA053" transform="translate(53,7)"/>
<path d="M0 0 C0.33 0 0.66 0 1 0 C1.01981934 0.88260498 1.03963867 1.76520996 1.06005859 2.67456055 C1.13837866 5.96421957 1.22507855 9.25343964 1.31738281 12.54272461 C1.35555149 13.9635373 1.39042513 15.38444263 1.421875 16.80541992 C1.46779065 18.85368855 1.52573805 20.90132608 1.5859375 22.94921875 C1.6173584 24.17987061 1.6487793 25.41052246 1.68115234 26.6784668 C1.98811136 29.87615243 2.73489394 32.08201226 4 35 C4 35.99 4 36.98 4 38 C2.68 37.67 1.36 37.34 0 37 C0 37.99 0 38.98 0 40 C-1.875 39.875 -1.875 39.875 -4 39 C-5.25 35.9375 -5.25 35.9375 -6 33 C-5.34 33 -4.68 33 -4 33 C-3.67 33.66 -3.34 34.32 -3 35 C-2.01 34.505 -2.01 34.505 -1 34 C-0.67 22.78 -0.34 11.56 0 0 Z " fill="#54ABA0" transform="translate(11,34)"/>
<path d="M0 0 C0.33 0 0.66 0 1 0 C1 7.92 1 15.84 1 24 C2.32 23.34 3.64 22.68 5 22 C4.37037037 26.65925926 4.37037037 26.65925926 2.4375 28.4375 C0.66047134 30.03838964 0.66047134 30.03838964 0.8125 33.1875 C0.874375 34.115625 0.93625 35.04375 1 36 C0.34 36 -0.32 36 -1 36 C-1.1546875 34.329375 -1.1546875 34.329375 -1.3125 32.625 C-1.539375 31.42875 -1.76625 30.2325 -2 29 C-2.99 28.34 -3.98 27.68 -5 27 C-4.35256836 26.45182617 -3.70513672 25.90365234 -3.03808594 25.33886719 C-0.58768034 22.5268301 -0.4722771 21.25246928 -0.390625 17.578125 C-0.35839844 16.55332031 -0.32617188 15.52851563 -0.29296875 14.47265625 C-0.27169922 12.87744141 -0.27169922 12.87744141 -0.25 11.25 C-0.22035156 10.17105469 -0.19070312 9.09210937 -0.16015625 7.98046875 C-0.08953064 5.32023756 -0.03679804 2.66087898 0 0 Z " fill="#DD9338" transform="translate(32,14)"/>
<path d="M0 0 C0.99 0.33 1.98 0.66 3 1 C2.01 1.99 1.02 2.98 0 4 C0.33 4.66 0.66 5.32 1 6 C-2.48499862 7.74249931 -6.20934144 7.72545362 -10 7 C-12.29017713 5.19832396 -13.39131687 3.4908642 -15 1 C-14.08476562 1.01160156 -13.16953125 1.02320312 -12.2265625 1.03515625 C-11.03804687 1.04417969 -9.84953125 1.05320312 -8.625 1.0625 C-6.84996094 1.07990234 -6.84996094 1.07990234 -5.0390625 1.09765625 C-2.08078479 1.21466593 -2.08078479 1.21466593 0 0 Z M-17 2 C-15 3 -15 3 -15 3 Z " fill="#028070" transform="translate(43,81)"/>
<path d="M0 0 C0.875 2.0625 0.875 2.0625 1 5 C-0.32742362 6.97600193 -1.81636708 8.62905997 -3.45703125 10.3515625 C-5.20190887 12.1256074 -5.20190887 12.1256074 -7 15 C-8.9453125 15.29296875 -8.9453125 15.29296875 -11.125 15.1875 C-13.043125 15.0946875 -13.043125 15.0946875 -15 15 C-14.67 13.02 -14.34 11.04 -14 9 C-13.67 10.32 -13.34 11.64 -13 13 C-11.02 13 -9.04 13 -7 13 C-7.33 11.35 -7.66 9.7 -8 8 C-7.34 8 -6.68 8 -6 8 C-6 6.68 -6 5.36 -6 4 C-2.66666667 0 -2.66666667 0 0 0 Z " fill="#DE973C" transform="translate(20,12)"/>
<path d="M0 0 C2.125 0.375 2.125 0.375 4 1 C3.0022242 3.99332739 2.2477975 4.94766315 0 7 C0.66 7 1.32 7 2 7 C1.6875 8.875 1.6875 8.875 1 11 C0.01 11.66 -0.98 12.32 -2 13 C-2.99 12.67 -3.98 12.34 -5 12 C-5.6875 9.9375 -5.6875 9.9375 -6 8 C-5.34 7.566875 -4.68 7.13375 -4 6.6875 C-3.01 5.8521875 -3.01 5.8521875 -2 5 C-2 4.01 -2 3.02 -2 2 C-1.34 1.34 -0.68 0.68 0 0 Z " fill="#1B8B79" transform="translate(54,73)"/>
<path d="M0 0 C2.475 0.99 2.475 0.99 5 2 C5 10.25 5 18.5 5 27 C2.69 27.33 0.38 27.66 -2 28 C-2 27.34 -2 26.68 -2 26 C-0.02 26 1.96 26 4 26 C4 18.41 4 10.82 4 3 C2.02 3 0.04 3 -2 3 C-2 2.34 -2 1.68 -2 1 C-1.34 0.67 -0.68 0.34 0 0 Z " fill="#E7B978" transform="translate(35,49)"/>
<path d="M0 0 C0.99 0.33 1.98 0.66 3 1 C2.01 1.33 1.02 1.66 0 2 C0.33 3.65 0.66 5.3 1 7 C0.01 6.67 -0.98 6.34 -2 6 C-1.67 7.65 -1.34 9.3 -1 11 C-2.98 11 -4.96 11 -7 11 C-6.62403791 8.21788056 -6.32681541 6.4120716 -4.5625 4.1875 C-3 3 -3 3 -1 3 C-0.67 2.01 -0.34 1.02 0 0 Z " fill="#DF861A" transform="translate(14,14)"/>
<path d="M0 0 C0.33 0 0.66 0 1 0 C1 2.31 1 4.62 1 7 C0.67 6.01 0.34 5.02 0 4 C-4.37934119 4.51958285 -8.68803391 5.05675742 -13 6 C-13.33 4.68 -13.66 3.36 -14 2 C-12.34385343 1.61781233 -10.67542976 1.28604898 -9 1 C-8.67 1.33 -8.34 1.66 -8 2 C-6.65252916 2.23075082 -5.29622435 2.41153063 -3.9375 2.5625 C-2.638125 2.706875 -1.33875 2.85125 0 3 C0 2.01 0 1.02 0 0 Z " fill="#529891" transform="translate(47,43)"/>
<path d="M0 0 C1.9375 0.8125 1.9375 0.8125 4 2 C4.33 2.99 4.66 3.98 5 5 C0.28400182 5.92470553 -2.67265609 6.22923777 -7 4 C-6.401875 3.896875 -5.80375 3.79375 -5.1875 3.6875 C-2.71756736 2.91123545 -1.67748765 1.92911079 0 0 Z " fill="#238E80" transform="translate(28,83)"/>
<path d="M0 0 C2.4375 0.6875 2.4375 0.6875 5 2 C5.875 4.5 5.875 4.5 6 7 C5.67 7.66 5.34 8.32 5 9 C4.01 8.67 3.02 8.34 2 8 C2 6.68 2 5.36 2 4 C1.01 3.67 0.02 3.34 -1 3 C-0.67 2.01 -0.34 1.02 0 0 Z " fill="#038071" transform="translate(11,71)"/>
<path d="M0 0 C0.33 0.99 0.66 1.98 1 3 C-0.3125 5.1875 -0.3125 5.1875 -2 7 C-2.66 7 -3.32 7 -4 7 C-4.33 7.99 -4.66 8.98 -5 10 C-5.99 10.33 -6.98 10.66 -8 11 C-6.52670958 5.99081256 -3.72484762 3.48192278 0 0 Z " fill="#D99F4E" transform="translate(15,10)"/>
<path d="M0 0 C2.475 0.99 2.475 0.99 5 2 C3.35 3.65 1.7 5.3 0 7 C0 6.01 0 5.02 0 4 C-0.66 4 -1.32 4 -2 4 C-1.34 2.68 -0.68 1.36 0 0 Z " fill="#31968B" transform="translate(56,76)"/>
<path d="M0 0 C0.53625 0.226875 1.0725 0.45375 1.625 0.6875 C-0.355 1.3475 -2.335 2.0075 -4.375 2.6875 C-4.375 3.3475 -4.375 4.0075 -4.375 4.6875 C-6.685 5.0175 -8.995 5.3475 -11.375 5.6875 C-8.45877964 2.28524292 -4.62034368 -0.60793996 0 0 Z " fill="#E1AC66" transform="translate(27.375,4.3125)"/>
<path d="M0 0 C2.31 0 4.62 0 7 0 C7 0.99 7 1.98 7 3 C6.01 2.67 5.02 2.34 4 2 C1.63477442 2.92203709 -0.70401807 3.91698965 -3 5 C-3 4.01 -3 3.02 -3 2 C-2.01 2 -1.02 2 0 2 C0 1.34 0 0.68 0 0 Z " fill="#E0AA5C" transform="translate(24,11)"/>
<path d="M0 0 C0.33 1.32 0.66 2.64 1 4 C2.98 4 4.96 4 7 4 C7 4.66 7 5.32 7 6 C4.36 6 1.72 6 -1 6 C-0.67 4.02 -0.34 2.04 0 0 Z " fill="#E5BD84" transform="translate(6,21)"/>
<path d="M0 0 C0.66 1.32 1.32 2.64 2 4 C1 5 1 5 -0.84765625 5.09765625 C-2.8984375 5.06510417 -4.94921875 5.03255208 -7 5 C-7 4.34 -7 3.68 -7 3 C-4.69 3 -2.38 3 0 3 C0 2.01 0 1.02 0 0 Z " fill="#E6BF87" transform="translate(65,22)"/>
<path d="M0 0 C0.8971875 0.309375 0.8971875 0.309375 1.8125 0.625 C-0.73818845 2.97948165 -1.89767358 3.60827924 -5.4375 3.8125 C-6.345 3.750625 -7.2525 3.68875 -8.1875 3.625 C-2.1875 -0.375 -2.1875 -0.375 0 0 Z " fill="#3D968A" transform="translate(51.1875,77.375)"/>
<path d="M0 0 C3.77545388 1.09068668 6.47043472 1.9083091 9 5 C6.69 4.67 4.38 4.34 2 4 C2 3.34 2 2.68 2 2 C1.34 2 0.68 2 0 2 C0 1.34 0 0.68 0 0 Z " fill="#E1AE65" transform="translate(47,5)"/>
<path d="M0 0 C-0.33 2.31 -0.66 4.62 -1 7 C-1.66 6.67 -2.32 6.34 -3 6 C-3.625 3.9375 -3.625 3.9375 -4 2 C-1 0 -1 0 0 0 Z " fill="#047F6F" transform="translate(52,79)"/>
<path d="M0 0 C0.33 0 0.66 0 1 0 C1 1.98 1 3.96 1 6 C-0.98 6.66 -2.96 7.32 -5 8 C-3.25 4.125 -3.25 4.125 -1 3 C-0.67 2.01 -0.34 1.02 0 0 Z " fill="#D79D4D" transform="translate(32,34)"/>
<path d="M0 0 C2.79872437 2.52788007 4.45773019 4.20411134 5 8 C4.34 8 3.68 8 3 8 C3 7.34 3 6.68 3 6 C2.01 6 1.02 6 0 6 C0 4.02 0 2.04 0 0 Z " fill="#DFA65C" transform="translate(60,14)"/>
<path d="M0 0 C0.66 0 1.32 0 2 0 C2.66 1.98 3.32 3.96 4 6 C2.68 5.67 1.36 5.34 0 5 C-0.5625 3.0625 -0.5625 3.0625 -1 1 C-0.67 0.67 -0.34 0.34 0 0 Z " fill="#028172" transform="translate(18,78)"/>
</svg>
